<svg xmlns="http://www.w3.org/2000/svg" width="96" height="95" viewBox="0 0 96 95" fill="none"><path d="M45.9219 92.5034H13.3787C11.2881 92.501 9.28394 91.6695 7.80573 90.1913C6.32751 88.7131 5.49602 86.7089 5.49365 84.6184V10.3816C5.49602 8.29108 6.32751 6.28687 7.80573 4.80866C9.28394 3.33044 11.2881 2.49895 13.3787 2.49658H45.9219C47.2129 2.49612 48.4844 2.81283 49.6244 3.41888C50.7644 4.02492 51.738 4.90174 52.4598 5.97225C52.5505 6.10665 52.614 6.25762 52.6464 6.41653C52.6788 6.57544 52.6797 6.73918 52.6488 6.89841C52.618 7.05764 52.5561 7.20924 52.4667 7.34454C52.3772 7.47985 52.262 7.59622 52.1276 7.687C51.9932 7.77779 51.8423 7.84121 51.6834 7.87365C51.5244 7.9061 51.3607 7.90692 51.2015 7.87608C51.0422 7.84524 50.8907 7.78334 50.7553 7.69391C50.62 7.60448 50.5037 7.48928 50.4129 7.35488C49.9171 6.61944 49.2483 6.01703 48.4653 5.60059C47.6822 5.18415 46.8088 4.96644 45.9219 4.96658H13.3787C11.943 4.96819 10.5666 5.53922 9.55145 6.55438C8.53629 7.56954 7.96526 8.94593 7.96365 10.3816V84.6184C7.96526 86.054 8.53629 87.4304 9.55145 88.4456C10.5666 89.4608 11.943 90.0318 13.3787 90.0334H45.9219C47.1678 90.0309 48.3749 89.6 49.3408 88.813C50.3067 88.026 50.9726 86.9308 51.2268 85.7111C51.2588 85.5516 51.3219 85.4 51.4125 85.265C51.5032 85.13 51.6196 85.0142 51.7551 84.9243C51.8907 84.8344 52.0426 84.7722 52.2022 84.7412C52.3619 84.7102 52.5261 84.711 52.6854 84.7436C52.8447 84.7762 52.996 84.8399 53.1307 84.9311C53.2653 85.0224 53.3806 85.1393 53.4699 85.2752C53.5592 85.4111 53.6208 85.5633 53.6511 85.7231C53.6815 85.8828 53.68 86.047 53.6467 86.2062C53.2769 87.9828 52.3074 89.5781 50.9009 90.7246C49.4944 91.8712 47.7365 92.4992 45.9219 92.5034Z" fill="#081F7D"></path><path d="M36.9501 11.1511H22.6431C21.827 11.1535 21.0292 10.9104 20.3532 10.4533C19.6772 9.99617 19.1544 9.34623 18.8528 8.58798L17.0875 4.19176C17.0122 4.00436 16.9841 3.80136 17.0055 3.60055C17.0269 3.39975 17.0973 3.20726 17.2104 3.03995C17.3235 2.87264 17.4759 2.73562 17.6542 2.64089C17.8326 2.54616 18.0314 2.49661 18.2334 2.49658H41.3604C41.5623 2.49661 41.7612 2.54616 41.9395 2.64089C42.1179 2.73562 42.2703 2.87264 42.3833 3.03995C42.4964 3.20726 42.5668 3.39975 42.5882 3.60055C42.6096 3.80136 42.5815 4.00436 42.5062 4.19176L40.741 8.58798C40.4393 9.34632 39.9164 9.99632 39.2403 10.4534C38.5642 10.9106 37.7662 11.1537 36.9501 11.1511V11.1511ZM20.0602 4.96658L21.1447 7.66781C21.264 7.9676 21.4707 8.22456 21.738 8.40528C22.0053 8.58599 22.3208 8.68209 22.6435 8.68108H36.9505C37.2731 8.68212 37.5886 8.58602 37.8559 8.40531C38.1232 8.22459 38.3299 7.96762 38.4492 7.66781L39.5339 4.96658H20.0602Z" fill="#081F7D"></path><path d="M47.9796 51.0398C47.6521 51.0398 47.338 50.9097 47.1064 50.6781C46.8747 50.4465 46.7446 50.1323 46.7446 49.8048V35.7809C46.7446 35.6187 46.7766 35.4581 46.8386 35.3083C46.9007 35.1584 46.9917 35.0223 47.1064 34.9076C47.221 34.7929 47.3572 34.702 47.507 34.6399C47.6569 34.5778 47.8174 34.5459 47.9796 34.5459C48.1418 34.5459 48.3024 34.5778 48.4522 34.6399C48.6021 34.702 48.7382 34.7929 48.8529 34.9076C48.9676 35.0223 49.0586 35.1584 49.1206 35.3083C49.1827 35.4581 49.2146 35.6187 49.2146 35.7809V49.8048C49.2146 50.1323 49.0845 50.4465 48.8529 50.6781C48.6213 50.9097 48.3072 51.0398 47.9796 51.0398V51.0398Z" fill="#081F7D"></path><path d="M41.6735 65.0637C41.3459 65.0637 41.0318 64.9336 40.8002 64.702C40.5686 64.4704 40.4385 64.1562 40.4385 63.8287V35.7809C40.4385 35.4534 40.5686 35.1392 40.8002 34.9076C41.0318 34.676 41.3459 34.5459 41.6735 34.5459C42.001 34.5459 42.3151 34.676 42.5468 34.9076C42.7784 35.1392 42.9085 35.4534 42.9085 35.7809V63.8287C42.9085 64.1562 42.7784 64.4704 42.5468 64.702C42.3151 64.9336 42.001 65.0637 41.6735 65.0637V65.0637Z" fill="#081F7D"></path><path d="M63.4704 51.0398C63.1428 51.0398 62.8287 50.9097 62.5971 50.6781C62.3655 50.4465 62.2354 50.1323 62.2354 49.8048V35.7809C62.2354 35.4534 62.3655 35.1392 62.5971 34.9076C62.8287 34.676 63.1428 34.5459 63.4704 34.5459C63.7979 34.5459 64.112 34.676 64.3436 34.9076C64.5752 35.1392 64.7054 35.4534 64.7054 35.7809V49.8048C64.7054 50.1323 64.5752 50.4465 64.3436 50.6781C64.112 50.9097 63.7979 51.0398 63.4704 51.0398V51.0398Z" fill="#081F7D"></path><path d="M57.1642 51.0398C56.8367 51.0398 56.5225 50.9097 56.2909 50.6781C56.0593 50.4465 55.9292 50.1323 55.9292 49.8048V35.7809C55.9292 35.4534 56.0593 35.1392 56.2909 34.9076C56.5225 34.676 56.8367 34.5459 57.1642 34.5459C57.4917 34.5459 57.8059 34.676 58.0375 34.9076C58.2691 35.1392 58.3992 35.4534 58.3992 35.7809V49.8048C58.3992 50.1323 58.2691 50.4465 58.0375 50.6781C57.8059 50.9097 57.4917 51.0398 57.1642 51.0398V51.0398Z" fill="#081F7D"></path><path d="M26.1828 65.0637C25.8552 65.0637 25.5411 64.9336 25.3095 64.702C25.0779 64.4704 24.9478 64.1562 24.9478 63.8287V35.7809C24.9478 35.4534 25.0779 35.1392 25.3095 34.9076C25.5411 34.676 25.8552 34.5459 26.1828 34.5459C26.5103 34.5459 26.8244 34.676 27.056 34.9076C27.2876 35.1392 27.4178 35.4534 27.4178 35.7809V63.8287C27.4178 64.1562 27.2876 64.4704 27.056 64.702C26.8244 64.9336 26.5103 65.0637 26.1828 65.0637V65.0637Z" fill="#081F7D"></path><path d="M32.4889 65.0637C32.1614 65.0637 31.8472 64.9336 31.6156 64.702C31.384 64.4704 31.2539 64.1562 31.2539 63.8287V35.7809C31.2539 35.4534 31.384 35.1392 31.6156 34.9076C31.8472 34.676 32.1614 34.5459 32.4889 34.5459C32.8164 34.5459 33.1306 34.676 33.3622 34.9076C33.5938 35.1392 33.7239 35.4534 33.7239 35.7809V63.8287C33.7239 64.1562 33.5938 64.4704 33.3622 64.702C33.1306 64.9336 32.8164 65.0637 32.4889 65.0637V65.0637Z" fill="#081F7D"></path><path d="M78.963 51.0398C78.6355 51.0398 78.3214 50.9097 78.0898 50.6781C77.8581 50.4465 77.728 50.1323 77.728 49.8048V35.7809C77.728 35.4534 77.8581 35.1392 78.0898 34.9076C78.3214 34.676 78.6355 34.5459 78.963 34.5459C79.2906 34.5459 79.6047 34.676 79.8363 34.9076C80.0679 35.1392 80.198 35.4534 80.198 35.7809V49.8048C80.198 50.1323 80.0679 50.4465 79.8363 50.6781C79.6047 50.9097 79.2906 51.0398 78.963 51.0398Z" fill="#081F7D"></path><path d="M72.6549 51.0398C72.3274 51.0398 72.0132 50.9097 71.7816 50.6781C71.55 50.4465 71.4199 50.1323 71.4199 49.8048V35.7809C71.4199 35.4534 71.55 35.1392 71.7816 34.9076C72.0132 34.676 72.3274 34.5459 72.6549 34.5459C72.9825 34.5459 73.2966 34.676 73.5282 34.9076C73.7598 35.1392 73.8899 35.4534 73.8899 35.7809V49.8048C73.8899 50.1323 73.7598 50.4465 73.5282 50.6781C73.2966 50.9097 72.9825 51.0398 72.6549 51.0398Z" fill="#081F7D"></path><path d="M87.6846 37.0165H17.4601C16.9491 37.012 16.4538 36.8395 16.0505 36.5257C15.6473 36.2119 15.3584 35.7741 15.2285 35.2799C15.0707 34.7636 15.0872 34.2098 15.2752 33.7038C15.4633 33.1978 15.8126 32.7677 16.2693 32.4799L50.8429 10.9909C51.3611 10.6661 51.9603 10.4939 52.5719 10.4939C53.1834 10.4939 53.7826 10.6661 54.3009 10.9909L88.8746 32.4799C89.3313 32.7677 89.6806 33.1979 89.8687 33.7039C90.0568 34.2099 90.0732 34.7638 89.9154 35.2801C89.7855 35.7741 89.4968 36.2117 89.0937 36.5255C88.6906 36.8393 88.1955 37.0118 87.6846 37.0165V37.0165ZM17.6235 34.5465H87.5212L52.9982 13.0879C52.8715 13.0057 52.7236 12.9619 52.5725 12.9619C52.4215 12.9619 52.2736 13.0057 52.1468 13.0879L17.6235 34.5465Z" fill="#081F7D"></path><path d="M43.1815 73.2126H22.573C21.7418 73.2116 20.945 72.881 20.3573 72.2933C19.7695 71.7056 19.4389 70.9088 19.438 70.0776V65.7285C19.4389 64.8973 19.7695 64.1005 20.3573 63.5128C20.945 62.9251 21.7418 62.5945 22.573 62.5935H43.1815C43.5091 62.5935 43.8232 62.7236 44.0548 62.9552C44.2864 63.1868 44.4165 63.501 44.4165 63.8285C44.4165 64.156 44.2864 64.4702 44.0548 64.7018C43.8232 64.9334 43.5091 65.0635 43.1815 65.0635H22.573C22.3966 65.0635 22.2275 65.1336 22.1028 65.2583C21.9781 65.383 21.908 65.5521 21.908 65.7285V70.0776C21.908 70.254 21.9781 70.4231 22.1028 70.5478C22.2275 70.6725 22.3966 70.7426 22.573 70.7426H43.1815C43.5091 70.7426 43.8232 70.8727 44.0548 71.1043C44.2864 71.3359 44.4165 71.6501 44.4165 71.9776C44.4165 72.3051 44.2864 72.6193 44.0548 72.8509C43.8232 73.0825 43.5091 73.2126 43.1815 73.2126V73.2126Z" fill="#081F7D"></path><path d="M86.2181 81.7264H49.8796C49.0485 81.7255 48.2516 81.3949 47.6639 80.8071C47.0762 80.2194 46.7456 79.4226 46.7446 78.5914V56.2683C46.7456 55.4371 47.0762 54.6403 47.6639 54.0526C48.2516 53.4649 49.0485 53.1343 49.8796 53.1333H86.2181C87.0492 53.1343 87.8461 53.4649 88.4338 54.0526C89.0215 54.6403 89.3521 55.4371 89.3531 56.2683V78.5914C89.3522 79.4226 89.0216 80.2195 88.4339 80.8072C87.8461 81.3949 87.0493 81.7255 86.2181 81.7264V81.7264ZM49.8796 55.6033C49.7033 55.6036 49.5343 55.6737 49.4097 55.7984C49.285 55.923 49.2149 56.092 49.2146 56.2683V78.5914C49.2149 78.7677 49.285 78.9367 49.4097 79.0614C49.5343 79.186 49.7033 79.2562 49.8796 79.2564H86.2181C86.3944 79.2564 86.5636 79.1863 86.6883 79.0616C86.813 78.9369 86.8831 78.7678 86.8831 78.5914V56.2683C86.8831 56.0919 86.813 55.9228 86.6883 55.7981C86.5636 55.6734 86.3944 55.6033 86.2181 55.6033H49.8796Z" fill="#081F7D"></path><path d="M88.1181 66.9548H47.9796C47.6521 66.9548 47.338 66.8247 47.1064 66.5931C46.8747 66.3615 46.7446 66.0473 46.7446 65.7198V59.3168C46.7446 58.9892 46.8747 58.6751 47.1064 58.4435C47.338 58.2119 47.6521 58.0818 47.9796 58.0818H88.1181C88.4456 58.0818 88.7597 58.2119 88.9914 58.4435C89.223 58.6751 89.3531 58.9892 89.3531 59.3168V65.7198C89.3531 66.0473 89.223 66.3615 88.9914 66.5931C88.7597 66.8247 88.4456 66.9548 88.1181 66.9548V66.9548ZM49.2146 64.4848H86.8831V60.5518H49.2146V64.4848Z" fill="#081F7D"></path><path d="M55.7113 78.1C54.7595 78.1001 53.8289 77.8178 53.0375 77.289C52.246 76.7602 51.6291 76.0086 51.2648 75.1291C50.9005 74.2497 50.8052 73.282 50.9909 72.3484C51.1766 71.4149 51.635 70.5573 52.308 69.8842C52.9811 69.2111 53.8387 68.7528 54.7723 68.5671C55.7059 68.3814 56.6736 68.4767 57.553 68.841C58.4324 69.2053 59.184 69.8222 59.7128 70.6136C60.2416 71.4051 60.5239 72.3356 60.5238 73.2875C60.5224 74.5634 60.0149 75.7866 59.1127 76.6888C58.2105 77.5911 56.9872 78.0986 55.7113 78.1V78.1ZM55.7113 70.9448C55.248 70.9448 54.795 71.0821 54.4097 71.3395C54.0245 71.5969 53.7242 71.9628 53.5468 72.3909C53.3695 72.8189 53.3231 73.29 53.4134 73.7444C53.5038 74.1989 53.7269 74.6163 54.0545 74.944C54.3822 75.2716 54.7996 75.4948 55.254 75.5852C55.7085 75.6756 56.1795 75.6292 56.6076 75.4519C57.0357 75.2746 57.4016 74.9743 57.659 74.5891C57.9164 74.2038 58.0538 73.7509 58.0538 73.2875C58.0531 72.6664 57.8061 72.071 57.367 71.6318C56.9278 71.1926 56.3324 70.9456 55.7113 70.9448V70.9448Z" fill="#081F7D"></path><path d="M52.5719 28.3039C51.5122 28.3039 50.4762 27.9897 49.5951 27.4009C48.714 26.8122 48.0273 25.9754 47.6217 24.9963C47.2162 24.0173 47.1101 22.94 47.3168 21.9006C47.5236 20.8612 48.0339 19.9065 48.7832 19.1572C49.5325 18.4079 50.4872 17.8976 51.5266 17.6908C52.5659 17.4841 53.6432 17.5902 54.6223 17.9957C55.6013 18.4013 56.4381 19.088 57.0269 19.9691C57.6156 20.8503 57.9299 21.8862 57.9299 22.9459C57.9281 24.3664 57.363 25.7282 56.3586 26.7326C55.3542 27.7371 53.9924 28.3021 52.5719 28.3039V28.3039ZM52.5719 20.0566C52.0007 20.0566 51.4423 20.2259 50.9674 20.5433C50.4925 20.8606 50.1223 21.3117 49.9037 21.8394C49.6851 22.3671 49.6279 22.9478 49.7394 23.508C49.8508 24.0682 50.1258 24.5828 50.5297 24.9867C50.9336 25.3906 51.4482 25.6656 52.0084 25.7771C52.5687 25.8885 53.1493 25.8313 53.6771 25.6127C54.2048 25.3941 54.6558 25.024 54.9732 24.5491C55.2905 24.0741 55.4599 23.5158 55.4599 22.9446C55.4589 22.1789 55.1543 21.4449 54.6129 20.9035C54.0715 20.3622 53.3375 20.0576 52.5719 20.0566V20.0566Z" fill="#081F7D"></path><path d="M41.111 87.555H18.1896C17.862 87.555 17.5479 87.4248 17.3163 87.1932C17.0847 86.9616 16.9546 86.6475 16.9546 86.32C16.9546 85.9924 17.0847 85.6783 17.3163 85.4467C17.5479 85.2151 17.862 85.085 18.1896 85.085H41.111C41.4385 85.085 41.7527 85.2151 41.9843 85.4467C42.2159 85.6783 42.346 85.9924 42.346 86.32C42.346 86.6475 42.2159 86.9616 41.9843 87.1932C41.7527 87.4248 41.4385 87.555 41.111 87.555V87.555Z" fill="#081F7D"></path><path d="M83.1562 71.6846H67.5114C67.1838 71.6846 66.8697 71.5545 66.6381 71.3229C66.4065 71.0913 66.2764 70.7771 66.2764 70.4496C66.2764 70.1221 66.4065 69.8079 66.6381 69.5763C66.8697 69.3447 67.1838 69.2146 67.5114 69.2146H83.1562C83.4837 69.2146 83.7978 69.3447 84.0294 69.5763C84.261 69.8079 84.3912 70.1221 84.3912 70.4496C84.3912 70.7771 84.261 71.0913 84.0294 71.3229C83.7978 71.5545 83.4837 71.6846 83.1562 71.6846V71.6846Z" fill="#081F7D"></path><path d="M83.1562 76.4143H67.5114C67.1838 76.4143 66.8697 76.2842 66.6381 76.0526C66.4065 75.821 66.2764 75.5069 66.2764 75.1793C66.2764 74.8518 66.4065 74.5377 66.6381 74.3061C66.8697 74.0745 67.1838 73.9443 67.5114 73.9443H83.1562C83.4837 73.9443 83.7978 74.0745 84.0294 74.3061C84.261 74.5377 84.3912 74.8518 84.3912 75.1793C84.3912 75.5069 84.261 75.821 84.0294 76.0526C83.7978 76.2842 83.4837 76.4143 83.1562 76.4143V76.4143Z" fill="#081F7D"></path></svg>