<svg xmlns="http://www.w3.org/2000/svg" width="105" height="105" viewBox="0 0 105 105" fill="none"><g clip-path="url(#clip0_101_9)"><path d="M75.6311 0.312012H28.4117C24.355 0.312012 21.0547 3.5809 21.0547 7.59892V85.9552C21.0547 86.7967 21.7433 87.4786 22.5928 87.4786C23.4422 87.4786 24.1309 86.7967 24.1309 85.9552V7.59892C24.1309 5.26095 26.0512 3.35889 28.4117 3.35889H35.0767V7.44211C35.0767 9.68745 36.921 11.5142 39.1879 11.5142H64.8549C67.1218 11.5142 68.9661 9.68745 68.9661 7.44211V3.35889H75.6311C77.9916 3.35889 79.9119 5.26095 79.9119 7.59892V11.6614C79.9119 12.503 80.6006 13.1849 81.45 13.1849C82.2994 13.1849 82.9881 12.503 82.9881 11.6614V7.59892C82.9883 3.5809 79.688 0.312012 75.6311 0.312012V0.312012ZM65.8899 7.44211C65.8899 8.0074 65.4256 8.46728 64.8549 8.46728H39.1879C38.6172 8.46728 38.1529 8.0074 38.1529 7.44211V3.35889H65.8901V7.44211H65.8899Z" fill="#323339"></path><path d="M81.4502 17.1365C80.6008 17.1365 79.9121 17.8184 79.9121 18.6599V97.0251C79.9121 99.3631 77.9918 101.265 75.6313 101.265H28.4117C26.0512 101.265 24.1309 99.3631 24.1309 97.0251V92.9626C24.1309 92.1211 23.4422 91.4392 22.5928 91.4392C21.7433 91.4392 21.0547 92.1211 21.0547 92.9626V97.0251C21.0547 101.043 24.355 104.312 28.4117 104.312H75.6313C79.688 104.312 82.9883 101.043 82.9883 97.0251V18.6599C82.9883 17.8186 82.2996 17.1365 81.4502 17.1365V17.1365Z" fill="#323339"></path><path d="M44.0122 95.2739C43.1628 95.2739 42.4741 95.9558 42.4741 96.7974C42.4741 97.6389 43.1628 98.3208 44.0122 98.3208H60.0309C60.8803 98.3208 61.5689 97.6389 61.5689 96.7974C61.5689 95.9558 60.8803 95.2739 60.0309 95.2739H44.0122Z" fill="#323339"></path><path d="M15.715 49.0435C15.1164 48.4471 14.1425 48.4447 13.5399 49.0378C12.6526 49.9121 12.1641 51.0748 12.1641 52.312C12.1641 53.5492 12.6528 54.7119 13.5399 55.5862C13.84 55.8819 14.2323 56.0296 14.6246 56.0296C15.0196 56.0296 15.4146 55.8799 15.715 55.5805C16.314 54.9839 16.3114 54.0193 15.7092 53.4261C15.4068 53.128 15.24 52.7325 15.24 52.3122C15.24 51.8919 15.4068 51.4963 15.7092 51.1983C16.3116 50.6047 16.3142 49.6401 15.715 49.0435V49.0435Z" fill="#323339"></path><path d="M11.3109 45.1693C10.7119 44.5727 9.73818 44.5705 9.13566 45.1636C7.19788 47.0724 6.13086 49.6113 6.13086 52.312C6.13086 55.0128 7.19809 57.5516 9.13566 59.4604C9.43569 59.7561 9.82801 59.9038 10.2203 59.9038C10.6153 59.9038 11.0103 59.7541 11.3109 59.4547C11.91 58.8579 11.9073 57.8935 11.305 57.3004C9.95187 55.9675 9.20703 54.196 9.20703 52.312C9.20703 50.428 9.95208 48.6566 11.305 47.3237C11.9073 46.7303 11.91 45.7659 11.3109 45.1693Z" fill="#323339"></path><path d="M3.07617 52.312C3.07617 48.8686 4.43153 45.6312 6.89247 43.1962C7.49335 42.6016 7.49396 41.637 6.8935 41.0418C6.29323 40.4467 5.31932 40.446 4.71823 41.0408C1.67569 44.0513 0 48.0541 0 52.312C0 56.5699 1.67569 60.5727 4.71844 63.5832C5.01867 63.8804 5.41201 64.0289 5.80556 64.0289C6.19931 64.0289 6.59326 63.88 6.8937 63.5822C7.49397 62.9868 7.49355 62.0222 6.89268 61.4278C4.43153 58.9928 3.07617 55.7554 3.07617 52.312Z" fill="#323339"></path><path d="M89.2851 49.0435C88.6861 49.6401 88.6888 50.6047 89.2909 51.1978C89.5933 51.496 89.7601 51.8915 89.7601 52.3118C89.7601 52.7321 89.5933 53.1277 89.2909 53.4257C88.6885 54.0191 88.6859 54.9837 89.2851 55.5801C89.5856 55.8795 89.9805 56.0292 90.3755 56.0292C90.7678 56.0292 91.1601 55.8813 91.4602 55.5858C92.3475 54.7115 92.836 53.5488 92.836 52.3116C92.836 51.0744 92.3473 49.9117 91.4602 49.0374C90.8579 48.4443 89.8839 48.4467 89.2851 49.0435V49.0435Z" fill="#323339"></path><path d="M95.8645 45.1636C95.2622 44.5701 94.2885 44.5729 93.6892 45.1693C93.0902 45.7661 93.0929 46.7305 93.6952 47.3236C95.0483 48.6565 95.7931 50.428 95.7931 52.312C95.7931 54.196 95.0481 55.9674 93.6952 57.3003C93.0929 57.8936 93.0902 58.8581 93.6892 59.4547C93.9899 59.7541 94.3849 59.9038 94.7798 59.9038C95.1722 59.9038 95.5645 59.7559 95.8645 59.4603C97.8023 57.5516 98.8693 55.0127 98.8693 52.312C98.8693 49.6112 97.8021 47.0724 95.8645 45.1636Z" fill="#323339"></path><path d="M100.281 41.0408C99.6805 40.446 98.7066 40.4467 98.1062 41.0418C97.5059 41.6372 97.5063 42.6018 98.1072 43.1962C100.568 45.6312 101.924 48.8686 101.924 52.312C101.924 55.7554 100.568 58.9928 98.1074 61.4278C97.5065 62.0224 97.5059 62.987 98.1064 63.5822C98.4068 63.88 98.8006 64.0289 99.1945 64.0289C99.5879 64.0289 99.9812 63.8804 100.282 63.5832C103.324 60.5727 105 56.5699 105 52.312C105 48.0541 103.324 44.0513 100.281 41.0408V41.0408Z" fill="#323339"></path><path d="M64.7741 25.4567C62.3403 25.4567 60.0471 26.2734 58.1983 27.7784C56.6024 26.9435 54.7833 26.4723 52.8546 26.4723C48.7778 26.4723 45.0395 28.623 43.0043 32.046C41.7131 31.8783 40.3977 32.1448 39.2493 32.8289C38.0287 33.5557 37.1394 34.6645 36.7059 35.9653C32.1757 37.0242 28.8813 41.0624 28.8813 45.7681C28.8813 51.3222 33.4433 55.8407 39.0508 55.8407H61.3366C66.9441 55.8407 71.506 51.3222 71.506 45.7681C71.506 45.0777 71.4365 44.4025 71.3038 43.7495C73.7383 41.805 75.1619 38.8879 75.1619 35.7456C75.1619 30.0723 70.502 25.4567 64.7741 25.4567V25.4567ZM61.3366 52.7938H39.0508C35.1395 52.7938 31.9575 49.6421 31.9575 45.7681C31.9575 42.2295 34.6274 39.2324 38.1679 38.7965C38.8699 38.7102 39.422 38.1605 39.5054 37.4648C39.6069 36.6206 40.0911 35.8827 40.8343 35.4401C41.2728 35.1788 41.7625 35.0464 42.2561 35.0464C42.5933 35.0464 42.9323 35.1084 43.2577 35.2333C44.0233 35.5274 44.8863 35.174 45.2191 34.4311C46.5566 31.4472 49.5536 29.5192 52.8542 29.5192C57.3245 29.5192 60.9894 32.9816 61.198 37.4016C61.232 38.1209 61.7695 38.7183 62.4869 38.8343C65.9306 39.3904 68.4298 42.3067 68.4298 45.7684C68.4298 49.6421 65.2479 52.7938 61.3366 52.7938V52.7938ZM70.1283 40.6809C68.838 38.4851 66.7254 36.812 64.1548 36.086C63.7723 33.5691 62.5617 31.3353 60.8104 29.6559C61.9793 28.9053 63.3421 28.5035 64.7741 28.5035C68.806 28.5035 72.086 31.7523 72.086 35.7456C72.0858 37.6072 71.3756 39.3571 70.1283 40.6809V40.6809Z" fill="#323339"></path><path d="M31.7148 64.951H37.9689C38.8183 64.951 39.507 64.2692 39.507 63.4276C39.507 62.5861 38.8183 61.9042 37.9689 61.9042H31.7148C30.8654 61.9042 30.1768 62.5861 30.1768 63.4276C30.1768 64.2692 30.8654 64.951 31.7148 64.951Z" fill="#323339"></path><path d="M45.0776 64.951H72.2954C73.1448 64.951 73.8335 64.2692 73.8335 63.4276C73.8335 62.5861 73.1448 61.9042 72.2954 61.9042H45.0776C44.2282 61.9042 43.5396 62.5861 43.5396 63.4276C43.5396 64.2692 44.2282 64.951 45.0776 64.951V64.951Z" fill="#323339"></path><path d="M31.7148 72.0604H37.9689C38.8183 72.0604 39.507 71.3785 39.507 70.537C39.507 69.6954 38.8183 69.0135 37.9689 69.0135H31.7148C30.8654 69.0135 30.1768 69.6954 30.1768 70.537C30.1768 71.3785 30.8654 72.0604 31.7148 72.0604Z" fill="#323339"></path><path d="M45.0776 72.0604H72.2954C73.1448 72.0604 73.8335 71.3785 73.8335 70.537C73.8335 69.6954 73.1448 69.0135 72.2954 69.0135H45.0776C44.2282 69.0135 43.5396 69.6954 43.5396 70.537C43.5396 71.3785 44.2282 72.0604 45.0776 72.0604V72.0604Z" fill="#323339"></path><path d="M31.7476 79.1674H38.0016C38.8511 79.1674 39.5397 78.4855 39.5397 77.6439C39.5397 76.8024 38.8511 76.1205 38.0016 76.1205H31.7476C30.8981 76.1205 30.2095 76.8024 30.2095 77.6439C30.2095 78.4855 30.8981 79.1674 31.7476 79.1674Z" fill="#323339"></path><path d="M73.8664 77.6439C73.8664 76.8024 73.1778 76.1205 72.3283 76.1205H45.1104C44.2609 76.1205 43.5723 76.8024 43.5723 77.6439C43.5723 78.4855 44.2609 79.1674 45.1104 79.1674H72.3281C73.1778 79.1674 73.8664 78.4855 73.8664 77.6439V77.6439Z" fill="#323339"></path></g><defs><clipPath id="clip0_101_9"><rect width="105" height="104" fill="white" transform="translate(0 0.312012)"></rect></clipPath></defs></svg>