<svg xmlns="http://www.w3.org/2000/svg" width="96" height="96" viewBox="0 0 96 96" fill="none"><g clip-path="url(#clip0_101_296)"><path d="M89.8994 12.6743H64.8667C64.8404 12.6743 64.8148 12.6767 64.7888 12.6782C63.8715 11.8171 62.8858 11.0176 61.8347 10.2902C61.2024 9.85327 60.3359 10.0112 59.8983 10.6428C59.4612 11.2747 59.6189 12.1418 60.2509 12.5791C66.3975 16.8315 70.0669 23.8261 70.0669 31.2893C70.0669 43.8254 59.8679 54.0244 47.3318 54.0244C34.7959 54.0244 24.5969 43.8254 24.5969 31.2893C24.5969 18.7534 34.7959 8.55444 47.3318 8.55444C49.8204 8.55444 52.2661 8.95355 54.6008 9.74083C55.3292 9.98705 56.1187 9.59518 56.364 8.8669C56.6097 8.13863 56.2184 7.34913 55.4901 7.10365C52.8682 6.21952 50.1234 5.77124 47.3318 5.77124C33.261 5.77124 21.8137 17.2186 21.8137 31.2893C21.8137 45.3601 33.261 56.8076 47.3318 56.8076C61.4026 56.8076 72.8501 45.3601 72.8501 31.2893C72.8501 25.4732 70.8632 19.912 67.3408 15.4575H89.8994C91.1784 15.4575 92.2188 16.4979 92.2188 17.7769V61.5759H81.2117C80.443 61.5759 79.8201 62.1988 79.8201 62.9675C79.8201 63.7363 80.443 64.3591 81.2117 64.3591H92.2188V71.6675C92.2188 72.9464 91.1784 73.9868 89.8994 73.9868H5.10449C3.82552 73.9868 2.78516 72.9464 2.78516 71.6675V64.3591H74.2033C74.972 64.3591 75.5949 63.7363 75.5949 62.9675C75.5949 62.1988 74.972 61.5759 74.2033 61.5759H2.78516V17.7769C2.78516 16.4979 3.82552 15.4575 5.10449 15.4575H21.6994C22.4682 15.4575 23.091 14.8346 23.091 14.0659C23.091 13.2972 22.4682 12.6743 21.6994 12.6743H5.10449C2.29086 12.6743 0.00195312 14.9634 0.00195312 17.7769V71.6673C0.00195312 74.4807 2.29086 76.7698 5.10449 76.7698H35.6077V87.6455H31.4065C30.6378 87.6455 30.0149 88.2684 30.0149 89.0371C30.0149 89.8058 30.6378 90.4287 31.4065 90.4287H63.2571C64.0258 90.4287 64.6487 89.8058 64.6487 89.0371C64.6487 88.2684 64.0258 87.6455 63.2571 87.6455H59.056V76.7698H89.8994C92.713 76.7698 95.002 74.4807 95.002 71.6673V17.7769C95.002 14.9634 92.713 12.6743 89.8994 12.6743V12.6743ZM56.2729 87.6457H38.3909V76.77H56.2729V87.6457Z" fill="#081F7D"></path><path d="M37.4166 20.1735C37.1197 18.6002 35.7422 17.458 34.1409 17.458H32.6528C31.8841 17.458 31.2612 18.0809 31.2612 18.8496C31.2612 19.6183 31.8841 20.2412 32.6528 20.2412H34.1409C34.4053 20.2412 34.6326 20.4297 34.6816 20.6897L38.8 42.5033C38.9241 43.1607 39.4986 43.6366 40.1675 43.6366H41.1063C40.6954 44.096 40.4432 44.7007 40.4432 45.3657C40.4432 46.8 41.606 47.9628 43.0403 47.9628C44.4746 47.9628 45.6374 46.8 45.6374 45.3657C45.6374 44.7007 45.3854 44.096 44.9743 43.6366H50.6991C50.2881 44.096 50.036 44.7007 50.036 45.3657C50.036 46.8 51.1988 47.9628 52.6331 47.9628C54.0674 47.9628 55.2302 46.8 55.2302 45.3657C55.2302 44.7007 54.9782 44.096 54.567 43.6366H55.8193C56.588 43.6366 57.2109 43.0137 57.2109 42.245C57.2109 41.4763 56.588 40.8534 55.8193 40.8534H41.3205L40.7527 37.8463H56.3049C56.9736 37.8463 57.5475 37.3709 57.6722 36.7137L60.1422 23.6833C60.1436 23.6749 60.1453 23.6666 60.1466 23.6582C60.2296 23.1712 60.0947 22.6754 59.7761 22.2978C59.4575 21.9202 58.9914 21.7037 58.4973 21.7037H37.7055L37.4166 20.1735ZM39.4921 31.1666H43.2888L43.5736 35.0631H40.228L39.4921 31.1666ZM49.4296 31.1666L49.1448 35.0631H46.3642L46.0794 31.1666H49.4296ZM45.876 28.3834L45.5912 24.4871H49.9178L49.633 28.3834H45.876ZM51.9356 35.0631L52.2204 31.1666H55.8913L55.1526 35.0631H51.9356ZM56.419 28.3834H52.424L52.7088 24.4871H57.1576L56.419 28.3834ZM42.8004 24.4871L43.0852 28.3834H38.9666L38.2309 24.4871H42.8004Z" fill="#081F7D"></path><path d="M9.06592 51.644H17.297C18.0657 51.644 18.6886 51.0212 18.6886 50.2524C18.6886 49.4837 18.0657 48.8608 17.297 48.8608H9.06592C8.2972 48.8608 7.67432 49.4837 7.67432 50.2524C7.67432 51.0212 8.2972 51.644 9.06592 51.644V51.644Z" fill="#081F7D"></path><path d="M9.06592 57.9209H24.4244C25.1931 57.9209 25.816 57.298 25.816 56.5293C25.816 55.7606 25.1931 55.1377 24.4244 55.1377H9.06592C8.2972 55.1377 7.67432 55.7606 7.67432 56.5293C7.67432 57.298 8.2972 57.9209 9.06592 57.9209Z" fill="#081F7D"></path><path d="M82.5566 20.7078C81.7879 20.7078 81.165 21.3306 81.165 22.0994V25.5823H77.6821C76.9134 25.5823 76.2905 26.2051 76.2905 26.9739C76.2905 27.7426 76.9134 28.3655 77.6821 28.3655H81.165V31.8484C81.165 32.6171 81.7879 33.24 82.5566 33.24C83.3254 33.24 83.9482 32.6171 83.9482 31.8484V28.3655H87.4309C88.1997 28.3655 88.8225 27.7426 88.8225 26.9739C88.8225 26.2051 88.1997 25.5823 87.4309 25.5823H83.9482V22.0994C83.9482 21.3308 83.3252 20.7078 82.5566 20.7078V20.7078Z" fill="#081F7D"></path></g><defs><clipPath id="clip0_101_296"><rect width="95" height="95" fill="white" transform="translate(0.00195312 0.600098)"></rect></clipPath></defs></svg>