<svg xmlns="http://www.w3.org/2000/svg" width="96" height="96" viewBox="0 0 96 96" fill="none"><g clip-path="url(#clip0_101_262)"><path d="M18.0269 15.3696C18.7954 15.3696 19.4185 14.7466 19.4185 13.978C19.4185 13.2095 18.7954 12.5864 18.0269 12.5864C17.2583 12.5864 16.6353 13.2095 16.6353 13.978C16.6353 14.7466 17.2583 15.3696 18.0269 15.3696Z" fill="#081F7D"></path><path d="M24.3818 15.3696C25.1504 15.3696 25.7734 14.7466 25.7734 13.978C25.7734 13.2095 25.1504 12.5864 24.3818 12.5864C23.6133 12.5864 22.9902 13.2095 22.9902 13.978C22.9902 14.7466 23.6133 15.3696 24.3818 15.3696Z" fill="#081F7D"></path><path d="M30.7368 15.3696C31.5054 15.3696 32.1284 14.7466 32.1284 13.978C32.1284 13.2095 31.5054 12.5864 30.7368 12.5864C29.9683 12.5864 29.3452 13.2095 29.3452 13.978C29.3452 14.7466 29.9683 15.3696 30.7368 15.3696Z" fill="#081F7D"></path><path d="M38.5762 87.9639C39.3447 87.9639 39.9678 87.341 39.9678 86.5723C39.9678 85.8035 39.3447 85.1807 38.5762 85.1807H32.4531C31.6846 85.1807 31.0615 85.8035 31.0615 86.5723C31.0615 87.341 31.6846 87.9639 32.4531 87.9639H38.5762Z" fill="#081F7D"></path><path d="M40.7598 62.9275C39.9912 62.9275 39.3682 63.5504 39.3682 64.3191V68.03C39.3682 68.7988 39.9912 69.4216 40.7598 69.4216C41.5283 69.4216 42.1514 68.7988 42.1514 68.03V64.3191C42.1514 63.5506 41.5283 62.9275 40.7598 62.9275Z" fill="#081F7D"></path><path d="M35.0699 64.783H32.1353C31.3667 64.783 30.7437 65.4058 30.7437 66.1746C30.7437 66.9433 31.3667 67.5662 32.1353 67.5662H35.0699C35.8384 67.5662 36.4615 66.9433 36.4615 66.1746C36.4615 65.4058 35.8384 64.783 35.0699 64.783Z" fill="#081F7D"></path><path d="M87.4434 64.783H45.8936C45.125 64.783 44.502 65.4058 44.502 66.1746C44.502 66.9433 45.125 67.5662 45.8936 67.5662H87.4434C88.212 67.5662 88.835 66.9433 88.835 66.1746C88.835 65.4058 88.212 64.783 87.4434 64.783Z" fill="#081F7D"></path><path d="M90.8245 23.8722H62.1199V11.9539C62.1199 9.71996 60.3024 7.90234 58.0683 7.90234H12.9613C10.7271 7.90234 8.90967 9.71996 8.90967 11.9539V30.027C8.90967 30.7957 9.53273 31.4186 10.3013 31.4186C11.0698 31.4186 11.6929 30.7957 11.6929 30.027V20.0538H59.3367V23.8722H28.7541C26.1679 23.8722 24.064 25.9761 24.064 28.5622V70.0915C24.064 72.6777 26.1679 74.7816 28.7541 74.7816H59.3367V77.3318C59.3367 78.0311 58.7678 78.6 58.0683 78.6H12.9613C12.2618 78.6 11.6929 78.0311 11.6929 77.3318V36.4283C11.6929 35.6596 11.0698 35.0367 10.3013 35.0367C9.53273 35.0367 8.90967 35.6596 8.90967 36.4283V77.3319C8.90967 79.5659 10.7271 81.3834 12.9613 81.3834H58.0683C60.3024 81.3834 62.1199 79.5659 62.1199 77.3319V74.7818H90.8245C93.4107 74.7818 95.5148 72.6777 95.5148 70.0917V28.5622C95.5148 25.9761 93.4107 23.8722 90.8245 23.8722V23.8722ZM11.6929 17.2706V11.9539C11.6929 11.2544 12.2618 10.6855 12.9613 10.6855H58.0683C58.7678 10.6855 59.3367 11.2544 59.3367 11.9539V17.2706H11.6929ZM92.7316 70.0917C92.7316 71.1432 91.876 71.9986 90.8245 71.9986H28.7541C27.7026 71.9986 26.8472 71.1432 26.8472 70.0917V28.5622C26.8472 27.5108 27.7026 26.6554 28.7541 26.6554H90.8245C91.876 26.6554 92.7316 27.5108 92.7316 28.5622V70.0917Z" fill="#081F7D"></path><path d="M59.7895 60.5092C67.6947 60.5092 74.1261 54.0778 74.1261 46.1725C74.1261 38.2673 67.6947 31.8357 59.7895 31.8357C51.8842 31.8357 45.4526 38.2671 45.4526 46.1725C45.4526 54.0778 51.8841 60.5092 59.7895 60.5092ZM59.7895 34.6191C66.16 34.6191 71.3429 39.8022 71.3429 46.1727C71.3429 52.5433 66.16 57.7262 59.7895 57.7262C53.4189 57.7262 48.2358 52.5433 48.2358 46.1727C48.2358 39.8022 53.4187 34.6191 59.7895 34.6191V34.6191Z" fill="#081F7D"></path><path d="M68.3376 78.5043C67.5691 78.5043 66.946 79.1272 66.946 79.8959V88.1752C66.946 90.5654 65.0015 92.5098 62.6115 92.5098H8.41824C6.02821 92.5098 4.08368 90.5654 4.08368 88.1752V7.41073C4.0835 5.02052 6.02803 3.07617 8.41824 3.07617H62.6115C65.0015 3.07617 66.946 5.02052 66.946 7.41073V18.7579C66.946 19.5266 67.5691 20.1495 68.3376 20.1495C69.1062 20.1495 69.7292 19.5266 69.7292 18.7579V7.41073C69.7292 3.48604 66.5362 0.292969 62.6113 0.292969H8.41824C4.49337 0.292969 1.30029 3.48604 1.30029 7.41073V88.175C1.30029 92.0999 4.49337 95.293 8.41824 95.293H62.6115C66.5362 95.293 69.7292 92.0999 69.7292 88.1752V79.8959C69.7292 79.1272 69.1062 78.5043 68.3376 78.5043V78.5043Z" fill="#081F7D"></path><path d="M56.5979 53.4146C56.9992 53.6126 57.4286 53.7102 57.8552 53.7102C58.4636 53.7102 59.0664 53.5119 59.573 53.1241L65.7155 48.4208C66.4209 47.8805 66.8254 47.0612 66.8254 46.1726C66.8254 45.2842 66.4208 44.4648 65.7153 43.9245L59.5728 39.2214C58.7109 38.5616 57.5713 38.4503 56.5977 38.9309C55.6245 39.4114 55.02 40.3842 55.02 41.4697V50.8758C55.0202 51.9611 55.6247 52.9339 56.5979 53.4146V53.4146ZM57.8034 41.4695C57.8034 41.4471 57.8034 41.4395 57.8303 41.4263C57.8414 41.4209 57.8491 41.4185 57.8554 41.4185C57.8645 41.4185 57.8709 41.4235 57.8812 41.4313L64.0235 46.1343C64.032 46.1407 64.0426 46.1488 64.0426 46.1726C64.0426 46.1965 64.032 46.2047 64.0237 46.211L57.8813 50.9142C57.8641 50.9274 57.8574 50.9326 57.8305 50.919C57.8036 50.9059 57.8036 50.8977 57.8036 50.8758V41.4695H57.8034Z" fill="#081F7D"></path></g><defs><clipPath id="clip0_101_262"><rect width="95" height="95" fill="white" transform="translate(0.907715 0.292969)"></rect></clipPath></defs></svg>