<svg xmlns="http://www.w3.org/2000/svg" width="169" height="168" viewBox="0 0 169 168" fill="none"><circle cx="84.5735" cy="83.7151" r="83.6287" fill="#219EDA"></circle><circle opacity="0.3" cx="60.8096" cy="50.0625" r="40.9048" fill="#72CFF7"></circle><path d="M119.331 96.1675H94.3306C93.4681 96.1675 92.7681 95.4675 92.7681 94.605C92.7681 93.7425 93.4681 93.0425 94.3306 93.0425H119.331C124.499 93.0425 128.706 88.8362 128.706 83.6675C128.706 78.4987 124.499 74.2925 119.331 74.2925C119.293 74.2987 118.79 74.3581 118.752 74.3581C118.218 74.4144 117.752 74.1737 117.434 73.7769C117.115 73.3831 117.009 72.855 117.149 72.3675C117.559 70.9331 117.768 69.4769 117.768 68.0425C117.768 59.4269 110.759 52.4175 102.143 52.4175C99.7337 52.4175 97.4024 52.9706 95.2118 54.055C94.8149 54.2487 94.3524 54.2675 93.9399 54.1081C93.5274 53.9425 93.2056 53.6144 93.0524 53.1956C90.1181 45.255 82.4681 39.9175 74.0181 39.9175C71.6431 39.9175 69.3212 40.3237 67.1087 41.1237C66.2993 41.4081 65.4024 40.9956 65.1087 40.1831C64.8149 39.3706 65.2368 38.4769 66.0462 38.18C68.5993 37.2581 71.2806 36.7925 74.0181 36.7925C83.2118 36.7925 91.5868 42.2675 95.3524 50.5769C97.5243 49.7237 99.8024 49.2925 102.143 49.2925C112.484 49.2925 120.893 57.7019 120.893 68.0425C120.893 69.1019 120.799 70.1706 120.612 71.2331C126.906 71.8769 131.831 77.2081 131.831 83.6675C131.831 90.5612 126.224 96.1675 119.331 96.1675ZM58.3931 96.1675H53.7056C45.0899 96.1675 38.0806 89.1581 38.0806 80.5425C38.0806 72.8331 43.6681 66.4175 51.1118 65.1831C50.7587 63.5519 50.5806 61.8925 50.5806 60.23C50.5806 55.3144 52.0837 50.6112 54.9337 46.6237C55.4337 45.9237 56.4087 45.7644 57.1118 46.2612C57.8149 46.7644 57.9774 47.7425 57.4743 48.4425C55.0087 51.8925 53.7056 55.9706 53.7056 60.23C53.7056 62.2081 53.9962 64.18 54.5743 66.0956C54.7118 66.555 54.6306 67.055 54.3524 67.4487C54.0743 67.8425 53.6306 68.0831 53.1493 68.105C46.4524 68.405 41.2056 73.8675 41.2056 80.5425C41.2056 87.4362 46.8118 93.0425 53.7056 93.0425H58.3931C59.2556 93.0425 59.9556 93.7425 59.9556 94.605C59.9556 95.4675 59.2556 96.1675 58.3931 96.1675Z" fill="white"></path><path d="M95.8931 130.542H70.8931C66.5868 130.542 63.0806 127.039 63.0806 122.73V66.48C63.0806 62.1706 66.5868 58.6675 70.8931 58.6675H95.8931C100.199 58.6675 103.706 62.1706 103.706 66.48V88.3612C103.706 89.2237 103.006 89.9237 102.143 89.9237C101.281 89.9237 100.581 89.2237 100.581 88.3612V66.48C100.581 63.8956 98.4774 61.7925 95.8931 61.7925H70.8931C68.3087 61.7925 66.2056 63.8956 66.2056 66.48V122.73C66.2056 125.314 68.3087 127.417 70.8931 127.417H95.8931C98.4774 127.417 100.581 125.314 100.581 122.73V94.605C100.581 93.7425 101.281 93.0425 102.143 93.0425C103.006 93.0425 103.706 93.7425 103.706 94.605V122.73C103.706 127.039 100.199 130.542 95.8931 130.542Z" fill="white"></path><path d="M60.9397 44.2363C60.4804 44.2363 60.0272 44.0425 59.7241 43.6644C59.1835 42.9925 59.2585 42.0363 59.9335 41.4956C59.9522 41.4831 60.0022 41.4425 60.021 41.43C60.7085 40.9206 61.6835 41.0519 62.2022 41.7269C62.7179 42.4019 62.6179 43.355 61.9554 43.8863C61.6585 44.1206 61.2991 44.2363 60.9397 44.2363V44.2363Z" fill="white"></path><path d="M86.5181 68.0425H80.2681C79.4056 68.0425 78.7056 67.3425 78.7056 66.48C78.7056 65.6175 79.4056 64.9175 80.2681 64.9175H86.5181C87.3806 64.9175 88.0806 65.6175 88.0806 66.48C88.0806 67.3425 87.3806 68.0425 86.5181 68.0425Z" fill="white"></path><path d="M83.3931 114.917C82.5306 114.917 81.8306 114.217 81.8306 113.355V100.855C81.8306 96.5456 85.3368 93.0425 89.6431 93.0425H95.8931C96.7556 93.0425 97.4556 93.7425 97.4556 94.605C97.4556 95.4675 96.7556 96.1675 95.8931 96.1675H89.6431C87.0587 96.1675 84.9556 98.2706 84.9556 100.855V113.355C84.9556 114.217 84.2556 114.917 83.3931 114.917Z" fill="white"></path><path d="M83.3929 114.918C82.9929 114.918 82.5929 114.764 82.2866 114.461L77.5991 109.774C76.9897 109.164 76.9897 108.174 77.5991 107.564C78.2085 106.955 79.1991 106.955 79.8085 107.564L83.3897 111.146L86.971 107.564C87.5804 106.955 88.571 106.955 89.1804 107.564C89.7897 108.174 89.7897 109.164 89.1804 109.774L84.4929 114.461C84.1929 114.764 83.7929 114.918 83.3929 114.918V114.918Z" fill="white"></path><path d="M114.643 108.511C113.781 108.511 113.081 107.967 113.081 107.105V106.792C113.081 105.93 113.781 105.23 114.643 105.23C115.506 105.23 116.206 105.93 116.206 106.792C116.206 107.655 115.506 108.511 114.643 108.511Z" fill="white"></path><path d="M114.643 114.761C113.781 114.761 113.081 114.217 113.081 113.355V113.042C113.081 112.18 113.781 111.48 114.643 111.48C115.506 111.48 116.206 112.18 116.206 113.042C116.206 113.905 115.506 114.761 114.643 114.761Z" fill="white"></path><path d="M114.643 121.011C113.781 121.011 113.081 120.467 113.081 119.605V119.292C113.081 118.43 113.781 117.73 114.643 117.73C115.506 117.73 116.206 118.43 116.206 119.292C116.206 120.155 115.506 121.011 114.643 121.011Z" fill="white"></path><path d="M52.1431 108.511C51.2806 108.511 50.5806 107.967 50.5806 107.105V106.792C50.5806 105.93 51.2806 105.23 52.1431 105.23C53.0056 105.23 53.7056 105.93 53.7056 106.792C53.7056 107.655 53.0056 108.511 52.1431 108.511Z" fill="white"></path><path d="M52.1431 114.761C51.2806 114.761 50.5806 114.217 50.5806 113.355V113.042C50.5806 112.18 51.2806 111.48 52.1431 111.48C53.0056 111.48 53.7056 112.18 53.7056 113.042C53.7056 113.905 53.0056 114.761 52.1431 114.761Z" fill="white"></path><path d="M52.1431 121.011C51.2806 121.011 50.5806 120.467 50.5806 119.605V119.292C50.5806 118.43 51.2806 117.73 52.1431 117.73C53.0056 117.73 53.7056 118.43 53.7056 119.292C53.7056 120.155 53.0056 121.011 52.1431 121.011Z" fill="white"></path></svg>