<svg xmlns="http://www.w3.org/2000/svg" width="169" height="168" viewBox="0 0 169 168" fill="none"><circle cx="84.574" cy="83.8282" r="83.6287" fill="#081F7D"></circle><circle opacity="0.3" cx="60.8101" cy="50.1755" r="40.9048" fill="#F5B7CE"></circle><g clip-path="url(#clip0_101_186)"><path d="M42.6386 121.313H84.5742V118.086H42.6386C39.9664 118.086 37.7999 115.92 37.7999 113.248V42.2799C37.7999 39.6069 39.9664 37.4412 42.6386 37.4412H113.606C116.28 37.4412 118.445 39.6069 118.445 42.2799V79.3765H121.672V42.2799C121.666 37.8281 118.059 34.2208 113.606 34.2156H42.6386C38.1876 34.2208 34.5799 37.8281 34.5742 42.2799V113.248C34.5799 117.7 38.1876 121.307 42.6386 121.313Z" fill="white"></path><path d="M41.0264 40.6677H44.2516V43.893H41.0264V40.6677Z" fill="white"></path><path d="M47.4771 40.6677H50.7035V43.893H47.4771V40.6677Z" fill="white"></path><path d="M53.9292 40.6677H57.1553V43.893H53.9292V40.6677Z" fill="white"></path><path d="M41.0264 47.1187H115.219V50.3451H41.0264V47.1187Z" fill="white"></path><path d="M57.6275 54.043L53.5306 58.1398C50.0677 55.8472 45.4303 56.5506 42.8021 59.767C40.1744 62.983 40.4101 67.6676 43.3467 70.6038C46.2829 73.5413 50.968 73.7769 54.1843 71.1488C57.4003 68.5211 58.1041 63.8829 55.8111 60.4207L59.9076 56.3239L57.6275 54.043ZM49.0897 69.6991C46.4179 69.6991 44.2515 67.533 44.2515 64.8608C44.2515 62.1882 46.4179 60.0225 49.0897 60.0225C49.8093 60.0249 50.5172 60.1899 51.1628 60.5056L47.9501 63.7187L50.2302 65.9996L53.4453 62.7885C53.7611 63.4337 53.9264 64.1416 53.9288 64.8608C53.9288 67.533 51.7632 69.6991 49.0897 69.6991Z" fill="white"></path><path d="M61.9937 60.0225H89.4124V63.2477H61.9937V60.0225Z" fill="white"></path><path d="M61.9937 66.4739H73.2837V69.6991H61.9937V66.4739Z" fill="white"></path><path d="M76.5098 66.4739H99.0898V69.6991H76.5098V66.4739Z" fill="white"></path><path d="M92.6387 60.0225H108.768V63.2477H92.6387V60.0225Z" fill="white"></path><path d="M57.6275 73.3977L53.5306 77.4946C50.0677 75.202 45.4303 75.9054 42.8021 79.1217C40.1744 82.3381 40.4101 87.0224 43.3467 89.9594C46.2829 92.896 50.968 93.1317 54.1843 90.5035C57.4003 87.8754 58.1041 83.2388 55.8111 79.7755L59.9076 75.6786L57.6275 73.3977ZM49.0897 89.0542C46.4179 89.0542 44.2515 86.8878 44.2515 84.2155C44.2515 81.5429 46.4179 79.3764 49.0897 79.3764C49.8093 79.3793 50.5172 79.5446 51.1628 79.8603L47.9501 83.0743L50.2302 85.3544L53.4453 82.1429C53.7611 82.7885 53.9264 83.4963 53.9288 84.2155C53.9288 86.8878 51.7632 89.0542 49.0897 89.0542Z" fill="white"></path><path d="M61.9937 79.3765H89.4124V82.6025H61.9937V79.3765Z" fill="white"></path><path d="M61.9937 85.8286H73.2837V89.0543H61.9937V85.8286Z" fill="white"></path><path d="M76.5098 85.8286H89.4124V89.0543H76.5098V85.8286Z" fill="white"></path><path d="M92.6387 79.3765H99.09V82.6025H92.6387V79.3765Z" fill="white"></path><path d="M57.6275 92.7524L53.5306 96.8493C50.0677 94.5567 45.4303 95.2601 42.8021 98.4765C40.1744 101.693 40.4101 106.377 43.3467 109.314C46.2829 112.251 50.968 112.486 54.1843 109.858C57.4003 107.23 58.1041 102.593 55.8111 99.1298L59.9076 95.0333L57.6275 92.7524ZM49.0897 108.409C46.4179 108.409 44.2515 106.242 44.2515 103.57C44.2515 100.898 46.4179 98.7316 49.0897 98.7316C49.8093 98.734 50.5172 98.8989 51.1628 99.2151L47.9501 102.429L50.2302 104.709L53.4453 101.498C53.7611 102.143 53.9264 102.851 53.9288 103.57C53.9288 106.242 51.7632 108.409 49.0897 108.409Z" fill="white"></path><path d="M61.9937 98.7317H82.9611V101.958H61.9937V98.7317Z" fill="white"></path><path d="M61.9937 105.183H73.2837V108.409H61.9937V105.183Z" fill="white"></path><path d="M76.5098 105.183H82.9611V108.409H76.5098V105.183Z" fill="white"></path><path d="M110.381 130.99C123.743 130.99 134.574 120.158 134.574 106.796C134.574 93.4341 123.743 82.6025 110.381 82.6025C97.0186 82.6025 86.187 93.4341 86.187 106.796C86.2028 120.151 97.0251 130.974 110.381 130.99ZM110.381 85.8286C121.96 85.8286 131.349 95.2161 131.349 106.796C131.349 118.377 121.96 127.764 110.381 127.764C98.8002 127.764 89.4123 118.377 89.4123 106.796C89.426 95.2218 98.8055 85.8415 110.381 85.8286Z" fill="white"></path><path d="M100.543 107.688L97.6553 109.129L100.881 115.581C101.113 116.045 101.554 116.37 102.066 116.453C102.15 116.466 102.233 116.473 102.316 116.474C102.744 116.474 103.154 116.304 103.457 116.001L122.811 96.6464L120.531 94.3655L102.758 112.138L100.543 107.688Z" fill="white"></path></g><defs><clipPath id="clip0_101_186"><rect width="100" height="100" fill="white" transform="translate(34.5742 34.1897)"></rect></clipPath></defs></svg>