<svg xmlns="http://www.w3.org/2000/svg" width="169" height="168" viewBox="0 0 169 168" fill="none"><circle cx="84.5735" cy="83.8001" r="83.6287" fill="#4BDB96"></circle><circle cx="60.8096" cy="50.1475" r="40.9048" fill="#80DCB5"></circle><g clip-path="url(#clip0_101_118)"><path d="M36.0381 92.7275C36.8473 92.7275 37.5029 92.0716 37.5029 91.2626V65.2777H110.17C110.979 65.2777 111.634 64.6218 111.634 63.8128C111.634 63.0038 110.979 62.348 110.17 62.348H37.5029V53.1698C37.5029 51.8185 38.0953 50.5423 39.1285 49.6687C39.7461 49.1462 39.8234 48.222 39.301 47.6042C38.7787 46.9864 37.8545 46.9091 37.2365 47.4318C35.5439 48.8634 34.5732 50.9548 34.5732 53.1698V91.2624C34.5732 92.0716 35.2289 92.7275 36.0381 92.7275V92.7275Z" fill="white"></path><path d="M73.4207 71.6115C72.7971 71.0959 71.8736 71.1838 71.3582 71.8074L62.5428 82.4736C62.0951 83.0152 62.0951 83.7984 62.5428 84.34L71.3582 95.0064C71.6479 95.357 72.0664 95.5383 72.4881 95.5381C72.8168 95.5381 73.1475 95.4281 73.4205 95.2023C74.0439 94.6869 74.1318 93.7637 73.6164 93.14L65.5721 83.4068L73.6164 73.6738C74.132 73.0502 74.0443 72.1268 73.4207 71.6115V71.6115Z" fill="white"></path><path d="M95.7584 95.2023C96.0314 95.428 96.3623 95.538 96.6908 95.538C97.1125 95.538 97.5311 95.3568 97.8207 95.0064L106.636 84.34C107.084 83.7984 107.084 83.0151 106.636 82.4735L97.8207 71.8073C97.3051 71.1837 96.382 71.096 95.7582 71.6114C95.1348 72.1269 95.0469 73.0501 95.5623 73.6737L103.607 83.4067L95.5623 93.14C95.0471 93.7636 95.1348 94.687 95.7584 95.2023V95.2023Z" fill="white"></path><path d="M90.2068 71.4152C89.4748 71.0703 88.6021 71.3845 88.2576 72.1165L78.215 93.4492C77.8705 94.1812 78.1846 95.0538 78.9166 95.3984C79.1181 95.4933 79.3304 95.5382 79.5394 95.5382C80.089 95.5382 80.6162 95.2273 80.8658 94.6968L90.9084 73.3642C91.2527 72.6326 90.9388 71.7599 90.2068 71.4152V71.4152Z" fill="white"></path><path d="M127.06 45.6572H45.6469C44.8377 45.6572 44.182 46.3131 44.182 47.1221C44.182 47.9311 44.8377 48.5869 45.6469 48.5869H127.06C129.587 48.5869 131.644 50.643 131.644 53.1701V62.348H117.085C116.276 62.348 115.62 63.0039 115.62 63.8129C115.62 64.6219 116.276 65.2777 117.085 65.2777H131.644V114.43C131.644 116.958 129.588 119.014 127.06 119.014H42.0861C39.5588 119.013 37.5029 116.958 37.5029 114.43V98.5293C37.5029 97.7203 36.8473 97.0645 36.0381 97.0645C35.2289 97.0645 34.5732 97.7203 34.5732 98.5293V114.43C34.5732 118.573 37.9436 121.943 42.0861 121.943H127.06C131.203 121.943 134.573 118.573 134.573 114.43V53.1699C134.573 49.0273 131.203 45.6572 127.06 45.6572Z" fill="white"></path><path d="M49.6671 55.8987C49.9069 54.4197 48.9022 53.0264 47.4232 52.7866C45.9442 52.5468 44.5508 53.5515 44.3111 55.0305C44.0713 56.5095 45.0759 57.9029 46.555 58.1426C48.034 58.3824 49.4273 57.3778 49.6671 55.8987Z" fill="white"></path><path d="M58.0123 55.8995C58.2521 54.4204 57.2474 53.0271 55.7684 52.7873C54.2894 52.5476 52.8961 53.5522 52.6563 55.0312C52.4165 56.5102 53.4212 57.9036 54.9002 58.1434C56.3792 58.3831 57.7726 57.3785 58.0123 55.8995Z" fill="white"></path><path d="M66.358 55.9C66.5978 54.4209 65.5932 53.0276 64.1141 52.7878C62.6351 52.5481 61.2418 53.5527 61.002 55.0317C60.7622 56.5107 61.7669 57.9041 63.2459 58.1438C64.7249 58.3836 66.1183 57.379 66.358 55.9Z" fill="white"></path><path d="M52.7474 103.94H46.2329C45.4237 103.94 44.7681 104.596 44.7681 105.405C44.7681 106.214 45.4237 106.87 46.2329 106.87H52.7474C53.5565 106.87 54.2122 106.214 54.2122 105.405C54.2122 104.596 53.5563 103.94 52.7474 103.94Z" fill="white"></path><path d="M71.1882 105.405C71.1882 104.596 70.5325 103.94 69.7233 103.94H59.2896C58.4804 103.94 57.8247 104.596 57.8247 105.405C57.8247 106.214 58.4804 106.87 59.2896 106.87H69.7233C70.5323 106.87 71.1882 106.214 71.1882 105.405Z" fill="white"></path><path d="M103.706 105.405C103.706 104.596 103.05 103.94 102.241 103.94H88.0566C87.2475 103.94 86.5918 104.596 86.5918 105.405C86.5918 106.214 87.2475 106.87 88.0566 106.87H102.241C103.05 106.87 103.706 106.214 103.706 105.405Z" fill="white"></path><path d="M82.4841 105.405C82.4841 104.596 81.8284 103.94 81.0192 103.94H76.7329C75.9237 103.94 75.2681 104.596 75.2681 105.405C75.2681 106.214 75.9237 106.87 76.7329 106.87H81.0192C81.8282 106.87 82.4841 106.214 82.4841 105.405Z" fill="white"></path><path d="M55.1006 113.968H61.615C62.4242 113.968 63.0799 113.312 63.0799 112.503C63.0799 111.694 62.4242 111.039 61.615 111.039H55.1006C54.2914 111.039 53.6357 111.694 53.6357 112.503C53.6357 113.312 54.2914 113.968 55.1006 113.968Z" fill="white"></path><path d="M68.1567 113.968H77.947C78.7562 113.968 79.4118 113.312 79.4118 112.503C79.4118 111.694 78.7562 111.039 77.947 111.039H68.1567C67.3476 111.039 66.6919 111.694 66.6919 112.503C66.6919 113.312 67.3478 113.968 68.1567 113.968Z" fill="white"></path><path d="M84.9639 113.968H89.4186C90.2277 113.968 90.8834 113.312 90.8834 112.503C90.8834 111.694 90.2277 111.039 89.4186 111.039H84.9639C84.1547 111.039 83.499 111.694 83.499 112.503C83.499 113.312 84.1547 113.968 84.9639 113.968Z" fill="white"></path><path d="M122.09 113.968C122.899 113.968 123.554 113.312 123.554 112.503C123.554 111.694 122.899 111.039 122.09 111.039H117.671C116.862 111.039 116.206 111.694 116.206 112.503C116.206 113.312 116.862 113.968 117.671 113.968H122.09Z" fill="white"></path><path d="M96.4121 113.968H110.969C111.778 113.968 112.434 113.312 112.434 112.503C112.434 111.694 111.778 111.039 110.969 111.039H96.4121C95.6029 111.039 94.9473 111.694 94.9473 112.503C94.9473 113.312 95.6031 113.968 96.4121 113.968Z" fill="white"></path></g><defs><clipPath id="clip0_101_118"><rect width="100" height="100" fill="white" transform="translate(34.5732 33.8003)"></rect></clipPath></defs></svg>