<svg xmlns="http://www.w3.org/2000/svg" width="169" height="168" viewBox="0 0 169 168" fill="none"><circle cx="84.5735" cy="83.8001" r="83.6287" fill="#EDE06E"></circle><circle opacity="0.3" cx="60.8096" cy="50.1475" r="40.9048" fill="#CFBC79"></circle><path d="M103.53 131.457H63.2732C58.2176 131.457 54.1045 127.343 54.1045 122.288V44.9222C54.1045 39.8665 58.2176 35.7534 63.2732 35.7534H103.53C108.585 35.7534 112.698 39.8665 112.698 44.9222V122.288C112.698 127.343 108.585 131.457 103.53 131.457ZM63.2732 39.6597C60.3715 39.6597 58.0107 42.0204 58.0107 44.9222V122.288C58.0107 125.19 60.3715 127.55 63.2732 127.55H103.53C106.431 127.55 108.792 125.19 108.792 122.288V44.9222C108.792 42.0204 106.431 39.6597 103.53 39.6597H63.2732Z" fill="white"></path><path d="M110.745 51.3784H56.0576C54.9789 51.3784 54.1045 50.504 54.1045 49.4253C54.1045 48.3466 54.9789 47.4722 56.0576 47.4722H110.745C111.824 47.4722 112.698 48.3466 112.698 49.4253C112.698 50.504 111.824 51.3784 110.745 51.3784Z" fill="white"></path><path d="M110.745 119.738H56.0576C54.9789 119.738 54.1045 118.863 54.1045 117.785C54.1045 116.706 54.9789 115.832 56.0576 115.832H110.745C111.824 115.832 112.698 116.706 112.698 117.785C112.698 118.863 111.824 119.738 110.745 119.738Z" fill="white"></path><path d="M67.7763 68.9564C67.2765 68.9564 66.7765 68.7658 66.3953 68.3844L62.489 64.4781C61.7263 63.7154 61.7263 62.4787 62.489 61.7158L66.3953 57.8096C67.158 57.0469 68.3947 57.0469 69.1576 57.8096C69.9205 58.5723 69.9203 59.809 69.1576 60.5719L66.6322 63.0971L69.1574 65.6223C69.9201 66.385 69.9201 67.6217 69.1574 68.3846C68.7761 68.7658 68.2761 68.9564 67.7763 68.9564Z" fill="white"></path><path d="M85.3546 68.9565C84.8546 68.9565 84.3548 68.7659 83.9736 68.3844C83.2109 67.6218 83.2109 66.385 83.9736 65.6221L86.4986 63.0971L83.9734 60.5719C83.2107 59.8093 83.2107 58.5725 83.9734 57.8096C84.7361 57.0468 85.9726 57.0469 86.7357 57.8096L90.6419 61.7159C91.4046 62.4786 91.4046 63.7153 90.6419 64.4782L86.7357 68.3844C86.3543 68.7659 85.8546 68.9565 85.3546 68.9565Z" fill="white"></path><path d="M73.6341 70.9101C73.3405 70.9101 73.0425 70.8437 72.7622 70.7035C71.7974 70.2211 71.4064 69.0478 71.8888 68.083L77.7482 56.3642C78.2304 55.3996 79.4036 55.0084 80.3687 55.4908C81.3335 55.9732 81.7245 57.1465 81.2421 58.1113L75.3827 69.83C75.0403 70.5144 74.3505 70.9101 73.6341 70.9101V70.9101Z" fill="white"></path><path d="M89.2607 82.6284H65.8232C64.7445 82.6284 63.8701 81.754 63.8701 80.6753C63.8701 79.5966 64.7445 78.7222 65.8232 78.7222H89.2607C90.3393 78.7222 91.2139 79.5966 91.2139 80.6753C91.2139 81.754 90.3393 82.6284 89.2607 82.6284Z" fill="white"></path><path d="M89.2607 90.4409H65.8232C64.7445 90.4409 63.8701 89.5663 63.8701 88.4878C63.8701 87.4093 64.7445 86.5347 65.8232 86.5347H89.2607C90.3393 86.5347 91.2139 87.4093 91.2139 88.4878C91.2139 89.5663 90.3393 90.4409 89.2607 90.4409Z" fill="white"></path><path d="M100.979 98.2534H65.8232C64.7445 98.2534 63.8701 97.3788 63.8701 96.3003C63.8701 95.2218 64.7445 94.3472 65.8232 94.3472H100.979C102.058 94.3472 102.933 95.2218 102.933 96.3003C102.933 97.3788 102.058 98.2534 100.979 98.2534Z" fill="white"></path><path d="M100.979 106.066H65.8232C64.7445 106.066 63.8701 105.191 63.8701 104.113C63.8701 103.034 64.7445 102.16 65.8232 102.16H100.979C102.058 102.16 102.933 103.034 102.933 104.113C102.933 105.191 102.058 106.066 100.979 106.066Z" fill="white"></path><path d="M127.347 51.3784C128.965 51.3784 130.276 50.0668 130.276 48.4487C130.276 46.8307 128.965 45.519 127.347 45.519C125.729 45.519 124.417 46.8307 124.417 48.4487C124.417 50.0668 125.729 51.3784 127.347 51.3784Z" fill="white"></path><path d="M43.3623 113.878C44.9803 113.878 46.292 112.567 46.292 110.949C46.292 109.331 44.9803 108.019 43.3623 108.019C41.7443 108.019 40.4326 109.331 40.4326 110.949C40.4326 112.567 41.7443 113.878 43.3623 113.878Z" fill="white"></path><path d="M38.4795 74.8159C39.5582 74.8159 40.4326 73.9415 40.4326 72.8628C40.4326 71.7841 39.5582 70.9097 38.4795 70.9097C37.4008 70.9097 36.5264 71.7841 36.5264 72.8628C36.5264 73.9415 37.4008 74.8159 38.4795 74.8159Z" fill="white"></path><path d="M122.464 76.769C123.543 76.769 124.417 75.8946 124.417 74.8159C124.417 73.7372 123.543 72.8628 122.464 72.8628C121.385 72.8628 120.511 73.7372 120.511 74.8159C120.511 75.8946 121.385 76.769 122.464 76.769Z" fill="white"></path><path d="M48.2451 53.3315C49.3238 53.3315 50.1982 52.4571 50.1982 51.3784C50.1982 50.2997 49.3238 49.4253 48.2451 49.4253C47.1664 49.4253 46.292 50.2997 46.292 51.3784C46.292 52.4571 47.1664 53.3315 48.2451 53.3315Z" fill="white"></path><path d="M124.417 117.785C125.496 117.785 126.37 116.91 126.37 115.832C126.37 114.753 125.496 113.878 124.417 113.878C123.338 113.878 122.464 114.753 122.464 115.832C122.464 116.91 123.338 117.785 124.417 117.785Z" fill="white"></path></svg>