<svg xmlns="http://www.w3.org/2000/svg" width="96" height="96" viewBox="0 0 96 96" fill="none"><path d="M44.5003 8.54277C44.6372 8.66036 44.7975 8.75091 44.972 8.8091C45.1465 8.86728 45.3315 8.89193 45.5162 8.88158C47.6417 8.78769 49.7715 8.835 51.89 9.02316C51.9352 9.0268 51.9801 9.02869 52.0246 9.02882C52.3882 9.02666 52.7371 8.89285 52.9993 8.65497C53.2615 8.41709 53.4171 8.09326 53.434 7.75024C53.451 7.40721 53.3279 7.07113 53.0902 6.81126C52.8525 6.55139 52.5183 6.38754 52.1565 6.35348C49.9053 6.15344 47.6419 6.10326 45.3832 6.20331C45.1018 6.21624 44.8307 6.30783 44.6044 6.46646C44.3782 6.62509 44.2069 6.84361 44.1123 7.09431C44.0177 7.345 44.0041 7.61658 44.0732 7.8746C44.1423 8.13261 44.2909 8.36544 44.5003 8.54355V8.54277Z" fill="#081F7D"></path><path d="M30.514 11.9402C30.6949 11.9398 30.874 11.9067 31.0417 11.8425C33.0158 11.0962 35.044 10.4846 37.1108 10.0124C37.4768 9.92885 37.7928 9.71141 37.9891 9.40789C38.1854 9.10436 38.2461 8.73961 38.1576 8.39388C38.0692 8.04814 37.839 7.74974 37.5176 7.56433C37.1962 7.37891 36.81 7.32166 36.4439 7.40517C34.2445 7.90763 32.0862 8.55861 29.9855 9.35309C29.6792 9.46903 29.4253 9.68208 29.2672 9.95564C29.1092 10.2292 29.057 10.5462 29.1195 10.8522C29.182 11.1582 29.3554 11.434 29.6099 11.6324C29.8644 11.8307 30.1841 11.9392 30.514 11.9392V11.9402Z" fill="#081F7D"></path><path d="M23.4977 15.5229C23.6569 15.4286 23.7947 15.3054 23.9031 15.1604C24.0116 15.0155 24.0885 14.8516 24.1294 14.6784C24.1702 14.5052 24.1743 14.326 24.1413 14.1513C24.1084 13.9765 24.039 13.8097 23.9373 13.6605C23.8355 13.5113 23.7034 13.3826 23.5486 13.2819C23.3939 13.1813 23.2195 13.1107 23.0356 13.0741C22.8517 13.0376 22.6619 13.0359 22.4773 13.0691C22.2927 13.1024 22.1169 13.1699 21.9602 13.2678C20.0592 14.4246 18.2474 15.7072 16.5385 17.106C16.3976 17.2214 16.2822 17.3619 16.1988 17.5194C16.1153 17.677 16.0656 17.8485 16.0524 18.0242C16.0392 18.1998 16.0627 18.3763 16.1217 18.5434C16.1807 18.7104 16.2739 18.8649 16.3961 18.998C16.5183 19.131 16.667 19.2401 16.8338 19.3188C17.0006 19.3976 17.1822 19.4446 17.3683 19.4571C17.744 19.4823 18.1149 19.3655 18.3994 19.1324C20.0064 17.817 21.7101 16.6108 23.4977 15.5229V15.5229Z" fill="#081F7D"></path><path d="M64.5807 6.98872C64.3507 6.82109 64.0732 6.72164 63.7833 6.70293C63.4934 6.68423 63.2042 6.74712 62.9521 6.88365C62.7001 7.02018 62.4966 7.22422 62.3673 7.46997C62.238 7.71572 62.1888 7.99216 62.2259 8.26433C62.2629 8.5365 62.3846 8.79218 62.5755 8.99906C62.7664 9.20594 63.0179 9.35471 63.2983 9.42659C63.5787 9.49846 63.8754 9.4902 64.1509 9.40286C64.4263 9.31551 64.6681 9.15299 64.8458 8.93586C65.0836 8.64427 65.1892 8.27551 65.1394 7.91048C65.0897 7.54545 64.8887 7.21396 64.5805 6.98872H64.5807Z" fill="#081F7D"></path><path d="M68.2089 9.63565C67.9397 9.43935 67.6068 9.33727 67.2668 9.3468C66.9269 9.35634 66.6009 9.47689 66.3445 9.68794C66.0882 9.89898 65.9172 10.1874 65.8607 10.5042C65.8043 10.8209 65.8659 11.1464 66.035 11.4251C66.2041 11.7037 66.4703 11.9184 66.7882 12.0325C67.1061 12.1466 67.4561 12.1531 67.7785 12.0508C68.1009 11.9486 68.3758 11.7439 68.5564 11.4717C68.7369 11.1995 68.8119 10.8766 68.7686 10.558C68.7188 10.1925 68.5174 9.86072 68.2087 9.63546L68.2089 9.63565Z" fill="#081F7D"></path><path d="M71.8363 12.2818C71.5671 12.0856 71.2342 11.9837 70.8944 11.9933C70.5545 12.0029 70.2287 12.1235 69.9725 12.3346C69.7162 12.5456 69.5454 12.8341 69.4891 13.1507C69.4327 13.4674 69.4944 13.7927 69.6635 14.0713C69.8327 14.3498 70.0988 14.5644 70.4167 14.6784C70.7345 14.7924 71.0844 14.7988 71.4067 14.6965C71.729 14.5942 72.0037 14.3895 72.1841 14.1173C72.3646 13.8452 72.4395 13.5224 72.3962 13.2039C72.3719 13.0229 72.3098 12.8482 72.2137 12.69C72.1176 12.5317 71.9892 12.393 71.8361 12.2818H71.8363Z" fill="#081F7D"></path><path d="M75.465 14.9292C75.235 14.7613 74.9573 14.6617 74.6673 14.6429C74.3773 14.6241 74.0878 14.6869 73.8356 14.8235C73.5834 14.96 73.3797 15.1641 73.2503 15.41C73.1209 15.6559 73.0716 15.9324 73.1087 16.2048C73.1457 16.4771 73.2674 16.7329 73.4584 16.9399C73.6494 17.1469 73.9011 17.2958 74.1817 17.3677C74.4623 17.4396 74.7591 17.4313 75.0347 17.3439C75.3103 17.2564 75.5522 17.0938 75.7299 16.8765C75.9681 16.5848 76.0738 16.2158 76.024 15.8505C75.9741 15.4851 75.7727 15.1535 75.464 14.9284L75.465 14.9292Z" fill="#081F7D"></path><path d="M58.1741 92.0118C56.1066 92.4833 54.006 92.8146 51.8884 93.0031C51.5253 93.0358 51.1895 93.1991 50.9505 93.4593C50.7115 93.7194 50.5876 94.0564 50.6046 94.4005C50.6215 94.7446 50.7779 95.0693 51.0415 95.3074C51.305 95.5455 51.6554 95.6787 52.0201 95.6794C52.0646 95.6794 52.1096 95.6775 52.1549 95.6736C54.4071 95.4724 56.6412 95.12 58.8404 94.619C59.0216 94.5777 59.1925 94.503 59.3432 94.3992C59.4939 94.2955 59.6215 94.1647 59.7187 94.0144C59.8159 93.8641 59.8808 93.6972 59.9097 93.5231C59.9386 93.3491 59.9309 93.1715 59.8871 93.0003C59.8433 92.8291 59.7642 92.6677 59.6544 92.5253C59.5445 92.383 59.4061 92.2625 59.2469 92.1707C59.0877 92.0789 58.911 92.0176 58.7268 91.9903C58.5425 91.963 58.3544 91.9703 58.1731 92.0117L58.1741 92.0118Z" fill="#081F7D"></path><path d="M43.3954 93.0041C41.2778 92.8154 39.1772 92.4843 37.1096 92.0131C36.7435 91.9296 36.3572 91.9868 36.0358 92.1722C35.7144 92.3576 35.4841 92.656 35.3957 93.0018C35.3072 93.3476 35.3678 93.7124 35.5642 94.0159C35.7605 94.3195 36.0764 94.5369 36.4426 94.6205C38.6417 95.1216 40.876 95.474 43.1282 95.675C43.1735 95.6789 43.2182 95.6809 43.2626 95.6809C43.6256 95.6778 43.9735 95.5436 44.235 95.3057C44.4964 95.0679 44.6515 94.7446 44.6684 94.4021C44.6853 94.0597 44.5627 93.7241 44.3258 93.4644C44.0889 93.2046 43.7556 93.0404 43.3945 93.0055L43.3954 93.0041Z" fill="#081F7D"></path><path d="M85.418 24.4495C85.141 24.4058 84.8565 24.4406 84.6005 24.5495C84.3444 24.6585 84.1283 24.8366 83.9795 25.0616C83.8307 25.2865 83.7558 25.548 83.7643 25.8131C83.7729 26.0782 83.8644 26.335 84.0275 26.5509C85.2618 28.1861 86.3714 29.902 87.348 31.6858C87.431 31.8463 87.5471 31.9895 87.6895 32.107C87.8319 32.2245 87.9978 32.314 88.1773 32.3701C88.3568 32.4263 88.5464 32.448 88.7349 32.434C88.9235 32.42 89.1071 32.3706 89.2752 32.2886C89.4432 32.2067 89.5922 32.0939 89.7134 31.9568C89.8347 31.8197 89.9257 31.6611 89.9812 31.4904C90.0366 31.3196 90.0554 31.1401 90.0364 30.9624C90.0174 30.7847 89.961 30.6124 89.8705 30.4556C88.8324 28.5584 87.6525 26.7335 86.34 24.9945C86.2321 24.8506 86.0951 24.7283 85.9368 24.6348C85.7786 24.5412 85.6022 24.4782 85.418 24.4495V24.4495Z" fill="#081F7D"></path><path d="M71.7841 86.5036C69.9969 87.5902 68.1297 88.5548 66.1968 89.39C66.0272 89.4633 65.8745 89.5674 65.7475 89.6963C65.6205 89.8253 65.5216 89.9766 65.4565 90.1417C65.3914 90.3068 65.3614 90.4823 65.3681 90.6583C65.3749 90.8344 65.4182 91.0074 65.4958 91.1676C65.5733 91.3278 65.6835 91.472 65.8201 91.5919C65.9566 91.7119 66.1169 91.8053 66.2916 91.8668C66.4664 91.9283 66.6523 91.9566 66.8387 91.9503C67.0251 91.9439 67.2083 91.9029 67.3779 91.8297C69.4342 90.9409 71.4207 89.9147 73.3223 88.7589C73.6348 88.5646 73.8536 88.2617 73.931 87.916C74.0084 87.5703 73.9382 87.2097 73.7357 86.9126C73.5331 86.6154 73.2146 86.4058 72.8494 86.3292C72.4841 86.2527 72.1016 86.3153 71.785 86.5036H71.7841Z" fill="#081F7D"></path><path d="M84.7414 76.8643C84.5949 76.7553 84.4271 76.6746 84.2476 76.6269C84.0681 76.5791 83.8804 76.5652 83.6952 76.586C83.51 76.6068 83.331 76.6618 83.1684 76.748C83.0057 76.8341 82.8626 76.9497 82.7473 77.0881C81.4305 78.6662 79.997 80.1543 78.4576 81.5412C78.1868 81.7871 78.03 82.1243 78.0218 82.479C78.0136 82.8337 78.1546 83.1771 78.4138 83.4339C78.6731 83.6907 79.0295 83.84 79.4051 83.8491C79.7806 83.8582 80.1447 83.7264 80.4176 83.4825C82.0544 82.0078 83.5784 80.4254 84.9783 78.7472C85.2108 78.4676 85.3165 78.1124 85.272 77.7595C85.2276 77.4065 85.0368 77.0845 84.7414 76.8643Z" fill="#081F7D"></path><path d="M91.8532 45.0096C91.9027 45.3285 92.0716 45.6201 92.3292 45.8315C92.5868 46.0429 92.9161 46.16 93.2574 46.1617C93.3249 46.1616 93.3923 46.1571 93.4592 46.1482C93.8319 46.0977 94.168 45.9095 94.394 45.6252C94.62 45.3408 94.7173 44.9834 94.6647 44.6313C94.3453 42.5159 93.8659 40.4247 93.2303 38.3739C93.1244 38.0326 92.8792 37.7451 92.5487 37.5745C92.2183 37.4039 91.8296 37.3643 91.4682 37.4643C91.1069 37.5644 90.8024 37.7959 90.6217 38.108C90.4411 38.4201 90.3992 38.7872 90.5051 39.1285C91.1024 41.056 91.553 43.0214 91.8532 45.0096V45.0096Z" fill="#081F7D"></path><path d="M91.6639 63.9813C91.3079 63.8651 90.9177 63.8872 90.579 64.0426C90.2403 64.1981 89.9808 64.4742 89.8575 64.8103C89.1613 66.7092 88.3218 68.5585 87.3455 70.3439C87.2537 70.5009 87.1962 70.6736 87.1763 70.8519C87.1564 71.0302 87.1745 71.2105 87.2297 71.382C87.2848 71.5536 87.3758 71.7129 87.4973 71.8507C87.6188 71.9885 87.7683 72.1018 87.937 72.1841C88.1056 72.2664 88.2901 72.3158 88.4793 72.3296C88.6686 72.3434 88.8589 72.3212 89.0389 72.2644C89.2189 72.2075 89.3851 72.1171 89.5275 71.9986C89.6699 71.8801 89.7857 71.7357 89.8681 71.5742C90.9068 69.6744 91.8 67.7067 92.5408 65.6863C92.6017 65.5199 92.6274 65.3438 92.6163 65.168C92.6052 64.9922 92.5575 64.8202 92.4761 64.6618C92.3946 64.5034 92.2808 64.3617 92.1414 64.2448C92.0019 64.1279 91.8394 64.0381 91.6632 63.9805L91.6639 63.9813Z" fill="#081F7D"></path><path d="M2.11864 44.0918C2.3018 44.125 2.49009 44.1238 2.67274 44.0882C2.8554 44.0527 3.02886 43.9835 3.18318 43.8846C3.33751 43.7857 3.46969 43.6591 3.57218 43.5119C3.67466 43.3647 3.74543 43.1999 3.78044 43.0269C4.18111 41.0543 4.73093 39.1114 5.4257 37.2131C5.54881 36.8769 5.5255 36.5084 5.3609 36.1885C5.19629 35.8686 4.90387 35.6236 4.54797 35.5073C4.19207 35.391 3.80184 35.413 3.46312 35.5685C3.12441 35.7239 2.86496 36.0001 2.74184 36.3362C2.00253 38.3559 1.41746 40.4231 0.991133 42.5217C0.92036 42.8711 0.999379 43.2326 1.21082 43.527C1.42225 43.8213 1.74879 44.0242 2.11864 44.0912V44.0918Z" fill="#081F7D"></path><path d="M29.0872 89.3904C27.1526 88.5538 25.2836 87.588 23.4945 86.5002C23.1779 86.3076 22.7932 86.2417 22.4252 86.317C22.0571 86.3923 21.7358 86.6025 21.5318 86.9015C21.3279 87.2006 21.2581 87.5638 21.3378 87.9115C21.4175 88.2591 21.6401 88.5625 21.9568 88.7551C23.8598 89.9121 25.8478 90.9393 27.9057 91.829C28.0906 91.9097 28.2919 91.9513 28.4956 91.9511C28.8198 91.9512 29.1343 91.8466 29.3868 91.6546C29.6393 91.4626 29.8147 91.1948 29.8838 90.8956C29.9529 90.5965 29.9116 90.284 29.7666 90.0101C29.6217 89.7362 29.382 89.5174 29.0872 89.39V89.3904Z" fill="#081F7D"></path><path d="M3.43037 57.0161C3.13141 55.0268 2.98147 53.02 2.98169 51.0107C2.98381 50.8332 2.94862 50.6571 2.87815 50.4925C2.80767 50.328 2.70332 50.1783 2.57114 50.0522C2.43896 49.926 2.28159 49.8259 2.10813 49.7576C1.93467 49.6893 1.74858 49.6542 1.56066 49.6543C1.37273 49.6544 1.1867 49.6898 1.01334 49.7583C0.83999 49.8268 0.682765 49.9272 0.55078 50.0535C0.418795 50.1799 0.314676 50.3297 0.244457 50.4944C0.174238 50.659 0.139317 50.8351 0.141717 51.0126C0.141635 53.1479 0.301106 55.2805 0.61894 57.3946C0.66839 57.7134 0.83722 58.005 1.0948 58.2164C1.35239 58.4278 1.68166 58.545 2.0229 58.5467C2.09048 58.5466 2.15798 58.5421 2.22491 58.5332C2.59755 58.4826 2.9337 58.2944 3.15967 58.01C3.38564 57.7256 3.48299 57.3682 3.43037 57.0161V57.0161Z" fill="#081F7D"></path><path d="M93.7218 49.6714C93.3454 49.6718 92.9845 49.8132 92.7182 50.0646C92.452 50.316 92.3022 50.6568 92.3018 51.0124C92.3018 53.0215 92.1519 55.0282 91.8531 57.0174C91.7999 57.3696 91.8971 57.7272 92.1232 58.0117C92.3492 58.2962 92.6857 58.4842 93.0585 58.5344C93.1254 58.5432 93.1928 58.5477 93.2603 58.5479C93.6016 58.5462 93.9309 58.429 94.1886 58.2176C94.4462 58.0062 94.615 57.7146 94.6645 57.3957C94.9822 55.2812 95.1417 53.1481 95.1417 51.0124C95.1413 50.6569 94.9916 50.316 94.7254 50.0646C94.4592 49.8132 94.0983 49.6718 93.7218 49.6714V49.6714Z" fill="#081F7D"></path><path d="M5.425 64.8093C5.30186 64.4732 5.04238 64.197 4.70365 64.0416C4.36491 63.8861 3.97467 63.8642 3.61877 63.9805C3.26287 64.0968 2.97046 64.3418 2.80587 64.6617C2.64128 64.9816 2.618 65.3502 2.74114 65.6863C3.48158 67.7056 4.37421 69.6723 5.41218 71.5711C5.4952 71.7316 5.61133 71.8748 5.75375 71.9923C5.89616 72.1098 6.062 72.1992 6.24152 72.2554C6.42104 72.3115 6.61063 72.3332 6.79916 72.3193C6.98769 72.3053 7.17136 72.2558 7.33939 72.1739C7.50742 72.0919 7.65643 71.9791 7.77766 71.842C7.89889 71.705 7.98991 71.5464 8.04537 71.3756C8.10082 71.2049 8.11961 71.0254 8.10061 70.8477C8.08162 70.67 8.02523 70.4977 7.93476 70.3408C6.95945 68.5559 6.12072 66.7074 5.425 64.8093V64.8093Z" fill="#081F7D"></path><path d="M12.5319 77.0846C12.4165 76.9462 12.2733 76.8306 12.1107 76.7445C11.948 76.6584 11.7689 76.6034 11.5837 76.5826C11.3985 76.5618 11.2108 76.5757 11.0313 76.6235C10.8518 76.6712 10.684 76.7519 10.5375 76.8609C10.391 76.9698 10.2686 77.105 10.1774 77.2587C10.0863 77.4123 10.028 77.5814 10.006 77.7563C9.98401 77.9312 9.99871 78.1085 10.0493 78.2781C10.0998 78.4476 10.1852 78.6061 10.3006 78.7444C11.7002 80.4223 13.2239 82.0044 14.8601 83.479C15.1335 83.7198 15.4965 83.8491 15.8702 83.8388C16.2439 83.8285 16.5982 83.6794 16.8563 83.4239C17.1143 83.1684 17.2553 82.8271 17.2485 82.474C17.2418 82.121 17.0879 81.7847 16.8203 81.5381C15.2813 80.1511 13.8482 78.6628 12.5319 77.0846V77.0846Z" fill="#081F7D"></path><path d="M12.2994 23.0547C12.0033 22.8352 11.6271 22.7355 11.2533 22.7775C10.8796 22.8194 10.5386 22.9996 10.3053 23.2785C8.90577 24.9577 7.63438 26.7287 6.50073 28.5781C6.376 28.7818 6.31024 29.013 6.31006 29.2484C6.30988 29.4838 6.37527 29.7151 6.49968 29.9191C6.62409 30.1231 6.80313 30.2925 7.01883 30.4105C7.23453 30.5284 7.47928 30.5907 7.72852 30.591C7.97766 30.5905 8.22232 30.5284 8.43817 30.4109C8.65401 30.2934 8.8335 30.1246 8.9588 29.9212C10.0245 28.1822 11.2199 26.5171 12.5359 24.9384C12.7685 24.6588 12.8741 24.3035 12.8298 23.9504C12.7855 23.5973 12.5947 23.2752 12.2994 23.0547V23.0547Z" fill="#081F7D"></path><path d="M79.1514 29.9972C79.5554 30.1013 79.9831 30.0896 80.38 29.9636C80.777 29.8375 81.1253 29.6029 81.3808 29.2895C81.4687 29.182 81.5363 29.0609 81.5803 28.9315L83.6416 22.8695L89.3438 19.4392C89.4649 19.3665 89.5717 19.2744 89.6594 19.1671C89.9048 18.8666 90.0547 18.5063 90.0915 18.1284C90.1282 17.7504 90.0503 17.3704 89.8669 17.0327C89.6835 16.695 89.4021 16.4135 89.0557 16.2212C88.7092 16.0289 88.312 15.9336 87.9103 15.9466L81.2825 15.1096L77.966 12.6911L82.5211 7.12127C82.6821 6.92452 82.8005 6.69975 82.8695 6.4598C82.9384 6.21984 82.9567 5.9694 82.9232 5.72277C82.8897 5.47615 82.8051 5.23817 82.6742 5.02244C82.5433 4.8067 82.3686 4.61744 82.1603 4.46546L80.7336 3.42461C80.2264 3.05619 79.6001 2.86452 78.9605 2.88203C78.3209 2.89954 77.7074 3.12514 77.2237 3.52069L71.6593 8.09025L62.8619 1.67256C61.7995 0.900452 60.4562 0.558012 59.1267 0.720405C57.7973 0.882798 56.5903 1.53675 55.7709 2.53872C54.9515 3.54069 54.5864 4.8088 54.756 6.06468C54.9255 7.32057 55.6158 8.4616 56.6752 9.23733L65.4724 15.6548L62.1978 21.8944C61.9149 22.4362 61.8387 23.0537 61.9823 23.6425C62.1259 24.2312 62.4804 24.755 62.9858 25.1253L64.4125 26.1668C64.7617 26.423 65.1914 26.562 65.6337 26.5618C65.7204 26.5618 65.8071 26.5565 65.8932 26.546C66.1544 26.515 66.4066 26.4353 66.635 26.3117C66.8635 26.188 67.0637 26.0228 67.2241 25.8256L71.7795 20.2556L75.0962 22.6752L77.6395 28.5068C77.7235 28.8619 77.9088 29.1885 78.1753 29.4512C78.4418 29.7139 78.7794 29.9027 79.1514 29.9972V29.9972ZM77.264 21.4925C77.1812 21.3028 77.0472 21.137 76.8753 21.0116L70.5004 16.3619C70.3714 16.2679 70.2241 16.1987 70.0668 16.1584C69.9095 16.1181 69.7454 16.1075 69.5838 16.1271C69.4221 16.1467 69.2662 16.1962 69.1248 16.2728C68.9834 16.3493 68.8594 16.4514 68.7598 16.5732C68.6602 16.695 68.587 16.8342 68.5443 16.9827C68.5017 17.1313 68.4904 17.2863 68.5112 17.4389C68.532 17.5916 68.5844 17.7389 68.6654 17.8724C68.7465 18.0059 68.8545 18.123 68.9835 18.2171L69.8156 18.824L65.5516 24.038L64.5016 23.2719C64.449 23.2336 64.4121 23.1793 64.397 23.1182C64.3819 23.0571 64.3897 22.993 64.4189 22.9366L68.1472 15.8353C68.2745 15.5926 68.3089 15.3158 68.2445 15.0518C68.1801 14.7879 68.0209 14.5532 67.794 14.3877L58.1919 7.38275C57.6504 6.98781 57.2973 6.40592 57.2102 5.76509C57.123 5.12426 57.309 4.47697 57.7271 3.96563C58.1453 3.4543 58.7614 3.12079 59.44 3.03848C60.1185 2.95617 60.8039 3.13181 61.3453 3.52674L70.9474 10.5314C71.1744 10.697 71.4551 10.7832 71.7418 10.7754C72.0285 10.7675 72.3035 10.666 72.5199 10.4883L78.8514 5.28876C78.9016 5.24751 78.9655 5.22398 79.0321 5.22217C79.0986 5.22035 79.1638 5.24036 79.2165 5.2788L80.2663 6.04449L76.0023 11.2585L75.1703 10.6515C75.0413 10.5575 74.8939 10.4884 74.7367 10.4481C74.5794 10.4078 74.4153 10.3972 74.2537 10.4168C74.092 10.4364 73.9361 10.4859 73.7947 10.5625C73.6534 10.639 73.5294 10.7411 73.4298 10.8629C73.3302 10.9847 73.257 11.1239 73.2143 11.2724C73.1717 11.421 73.1604 11.576 73.1812 11.7286C73.202 11.8812 73.2544 12.0285 73.3355 12.162C73.4165 12.2955 73.5246 12.4127 73.6536 12.5067L80.0285 17.1573C80.2012 17.2834 80.4061 17.3643 80.6225 17.3916L86.8291 18.1747L81.9308 21.1213C81.6867 21.2681 81.5047 21.4909 81.4161 21.7511L79.6462 26.9567L77.264 21.4925Z" fill="#081F7D"></path><path d="M47.6419 22.9004C31.2286 22.9004 17.8755 35.5116 17.8755 51.0128C17.8755 66.5139 31.2286 79.1253 47.6419 79.1253C64.0552 79.1253 77.4083 66.5141 77.4083 51.0128C77.4083 35.5114 64.0552 22.9004 47.6419 22.9004ZM20.3567 51.0128C20.3567 37.1357 32.0319 25.7876 46.5924 25.2647L47.8621 32.5566C47.9193 32.8862 47.874 33.2244 47.7318 33.5302C47.5895 33.836 47.3564 34.0962 47.0607 34.2794L42.2692 37.2426C41.5543 37.6828 40.9944 38.3142 40.6612 39.0563C40.3279 39.7984 40.2365 40.6174 40.3984 41.4089L41.0425 44.5943C41.17 45.2183 41.4499 45.8055 41.86 46.3093C42.27 46.8132 42.7989 47.2197 43.4046 47.4965L46.771 49.0273C47.1301 49.1915 47.4226 49.462 47.604 49.7976C47.7854 50.1332 47.8457 50.5156 47.7759 50.8866L46.5493 57.3201C46.4988 57.5838 46.3841 57.8328 46.2144 58.0475C46.0252 58.2865 45.7736 58.475 45.4842 58.5946C45.1949 58.7142 44.8776 58.7609 44.5633 58.73C44.2491 58.6992 43.9488 58.5919 43.6917 58.4186C43.4345 58.2453 43.2294 58.0119 43.0963 57.7413L41.8623 55.2334C41.515 54.5313 40.9632 53.9371 40.2715 53.5203C39.5798 53.1035 38.7767 52.8813 37.9562 52.8796H32.9671C32.0813 52.8783 31.2168 53.1363 30.4925 53.618L27.1377 55.8424C26.9265 55.9827 26.6862 56.0789 26.4326 56.1249C26.1791 56.1708 25.9181 56.1654 25.6669 56.109L20.6822 54.9914C20.4653 53.6751 20.3565 52.3449 20.3567 51.0128V51.0128ZM61.6315 65.0413L62.5061 72.6117C58.0866 75.3383 52.9208 76.7876 47.6419 76.782C34.9779 76.782 24.3023 68.5911 21.24 57.5244L25.0938 58.3885C25.6863 58.5212 26.3018 58.5337 26.8999 58.4254C27.4979 58.3171 28.0649 58.0904 28.5634 57.7601L31.918 55.536C32.2251 55.332 32.5916 55.2228 32.9671 55.2236H37.9562C38.3041 55.2243 38.6446 55.3185 38.9378 55.4952C39.2311 55.6719 39.465 55.9238 39.6123 56.2215L40.846 58.7295C41.1572 59.3696 41.6403 59.9217 42.2475 60.3308C42.8546 60.7399 43.5646 60.9917 44.3067 61.0613C44.4588 61.0762 44.6116 61.0837 44.7645 61.0838C45.4327 61.0848 46.0917 60.9377 46.6887 60.6542C47.2856 60.3708 47.8038 59.9589 48.2014 59.4518C48.6016 58.9453 48.872 58.358 48.9913 57.7361L50.2178 51.3026C50.3826 50.4274 50.2402 49.5254 49.8123 48.7337C49.3845 47.942 48.6945 47.3039 47.8474 46.9166L44.481 45.3858C44.2243 45.2684 44.0001 45.0961 43.8263 44.8825C43.6524 44.6689 43.5337 44.42 43.4797 44.1555L42.8356 40.9699C42.7669 40.6344 42.8056 40.2871 42.9469 39.9726C43.0882 39.658 43.3256 39.3903 43.6287 39.2038L48.42 36.2406C49.1176 35.8086 49.6675 35.1948 50.0031 34.4736C50.3386 33.7523 50.4454 32.9546 50.3105 32.1772L49.11 25.2811C52.8733 25.4726 56.5537 26.3993 59.9185 28.0026C63.2833 29.6059 66.2594 31.851 68.6587 34.5959L66.5497 36.0144C65.3412 36.828 64.4763 38.0189 64.1077 39.3766L63.4378 41.8482C63.1351 42.9655 63.1837 44.1418 63.5776 45.2334C63.9715 46.3249 64.6937 47.2844 65.6558 47.9945C66.2211 48.4142 66.6494 48.976 66.8915 49.6154C67.1336 50.2548 67.1797 50.9457 67.0244 51.6088L65.6707 57.3109C65.5122 57.9807 65.1533 58.5935 64.6368 59.0763L63.4564 60.1802C62.7825 60.8072 62.2681 61.5705 61.952 62.4125C61.6359 63.2546 61.5263 64.1534 61.6315 65.0413ZM74.9267 51.0128C74.9271 54.8483 74.0196 58.6353 72.2705 62.0969C70.5215 65.5584 67.9751 68.6069 64.8178 71.0192L64.098 64.7863C64.0346 64.2493 64.101 63.7056 64.2922 63.1964C64.4834 62.6871 64.7945 62.2254 65.2019 61.8461L66.3822 60.7422C67.2361 59.9443 67.8294 58.9316 68.0915 57.8245L69.4453 52.1223C69.7019 51.0266 69.6258 49.8846 69.2256 48.8279C68.8255 47.7712 68.1176 46.8427 67.1834 46.1491C66.6013 45.7194 66.1643 45.1389 65.9259 44.4784C65.6876 43.8179 65.6582 43.1062 65.8413 42.4302L66.5112 39.9585C66.7341 39.137 67.2575 38.4164 67.9888 37.9243L70.1532 36.4685C73.2683 40.7477 74.9331 45.8198 74.9271 51.0128H74.9267Z" fill="#081F7D"></path></svg>