<svg xmlns="http://www.w3.org/2000/svg" width="169" height="168" viewBox="0 0 169 168" fill="none"><circle cx="84.5735" cy="83.7151" r="83.6287" fill="#4B68DB"></circle><circle cx="60.8096" cy="50.0625" r="40.9048" fill="#5C7AF0"></circle><g clip-path="url(#clip0_101_75)"><path d="M131.155 113.895H130.96V105.203C130.96 104.394 130.304 103.739 129.495 103.739C128.686 103.739 128.03 104.394 128.03 105.203V113.895H71.3896C70.5807 113.895 69.9248 114.55 69.9248 115.36C69.9248 116.169 70.5807 116.824 71.3896 116.824H131.155C131.424 116.824 131.644 117.043 131.644 117.313V117.899C131.644 120.322 129.672 122.293 127.249 122.293H41.8975C39.4742 122.293 37.5029 120.322 37.5029 117.899V117.313C37.5029 117.043 37.7221 116.824 37.9912 116.824H64.5537C65.3627 116.824 66.0186 116.169 66.0186 115.36C66.0186 114.55 65.3627 113.895 64.5537 113.895H41.1162V82.9377C41.1162 82.1286 40.4604 81.4729 39.6514 81.4729C38.8424 81.4729 38.1865 82.1286 38.1865 82.9377V113.895H37.9912C36.1066 113.895 34.5732 115.428 34.5732 117.313V117.899C34.5732 121.937 37.8588 125.223 41.8975 125.223H127.249C131.288 125.223 134.573 121.937 134.573 117.899V117.313C134.573 115.428 133.04 113.895 131.155 113.895Z" fill="white"></path><path d="M39.6514 77.5668C40.4604 77.5668 41.1162 76.9111 41.1162 76.1019V66.0433H56.2902C57.5777 69.7373 61.0936 72.3962 65.2209 72.3962C65.241 72.3855 67.7541 72.3857 67.8738 72.3869V77.1761H60.9279C60.2852 74.9298 58.2145 73.2804 55.7645 73.2804C52.8027 73.2804 50.3934 75.69 50.3934 78.6515C50.3934 81.613 52.8027 84.0226 55.7645 84.0226C58.2221 84.0226 60.2979 82.3628 60.9338 80.1058H69.3389C70.1479 80.1058 70.8037 79.4502 70.8037 78.641V72.3869H75.7842V87.43H71.701C71.0947 85.1287 68.9961 83.4261 66.5068 83.4261C63.5451 83.4261 61.1357 85.8357 61.1357 88.7972C61.1357 91.7587 63.5451 94.1683 66.5068 94.1683C68.9252 94.1683 70.9746 92.5615 71.6455 90.3597H77.249C78.058 90.3597 78.7139 89.7041 78.7139 88.8949V72.3869H83.5967V92.4199C81.3451 93.0593 79.6904 95.1326 79.6904 97.5863C79.6904 100.548 82.0998 102.957 85.0615 102.957C88.0232 102.957 90.4326 100.548 90.4326 97.5863C90.4326 95.1326 88.7779 93.0593 86.5264 92.4199V72.3869H91.4092V88.8949C91.4092 89.7041 92.065 90.3597 92.874 90.3597H98.4775C99.1484 92.5615 101.198 94.1683 103.616 94.1683C106.578 94.1683 108.987 91.7587 108.987 88.7972C108.987 85.8357 106.578 83.4261 103.616 83.4261C101.127 83.4261 99.0283 85.1287 98.4221 87.43H94.3389V72.3869H99.2217V78.641C99.2217 79.4502 99.8775 80.1058 100.687 80.1058H109.091C109.727 82.3628 111.803 84.0226 114.261 84.0226C117.222 84.0226 119.632 81.613 119.632 78.6515C119.632 75.69 117.222 73.2804 114.261 73.2804C111.811 73.2804 109.74 74.93 109.097 77.1761H102.151V72.3869C102.939 72.3914 103.103 72.3763 103.925 72.3962C108.053 72.3962 111.569 69.7373 112.856 66.0433H128.03V98.3675C128.03 99.1767 128.686 99.8324 129.495 99.8324C130.304 99.8324 130.96 99.1767 130.96 98.3675V60.6722C130.96 58.7876 129.427 57.2542 127.542 57.2542H111.476C109.48 54.5966 105.912 52.9826 102.293 53.6248C101.166 48.5648 96.6371 44.816 91.2988 44.816C90.0146 44.816 88.7639 45.0292 87.5676 45.4509C85.2486 43.3181 82.1875 42.1121 79.0201 42.1121C78.2588 42.1121 77.4955 42.1806 76.7518 42.3158C75.9559 42.4603 75.4277 43.223 75.5723 44.0189C75.717 44.8148 76.4793 45.3435 77.2754 45.1982C77.8469 45.0945 78.4338 45.0417 79.0201 45.0417C81.7156 45.0417 84.3113 46.1798 86.142 48.164C86.5719 48.63 87.2529 48.7664 87.8295 48.5023C88.9242 48.0001 90.0916 47.7455 91.299 47.7455C95.6941 47.7455 99.3479 51.1789 99.6172 55.5621C99.6457 56.0273 99.8939 56.4511 100.286 56.7035C100.678 56.9562 101.166 57.007 101.601 56.841C102.345 56.5572 103.127 56.4132 103.926 56.4132C107.524 56.4132 110.452 59.3412 110.452 62.94C110.452 66.5388 107.524 69.4666 103.926 69.4666C103.473 69.4388 66.0422 69.4669 65.5955 69.4572C61.951 69.6169 58.6801 66.7488 58.6945 62.94C58.6945 59.3412 61.6225 56.4132 65.2213 56.4132C65.9668 56.4132 66.7 56.5392 67.4006 56.7871C67.8633 56.9509 68.3779 56.872 68.7705 56.5767C69.1629 56.2814 69.3812 55.8087 69.3518 55.3187C69.1637 52.8691 70.1857 49.8158 72.1102 47.9396C72.6771 47.3626 72.6691 46.4351 72.0922 45.8681C71.515 45.3013 70.5879 45.3095 70.0207 45.8863C67.9619 47.9812 66.7193 50.6728 66.4555 53.5642C63.3535 53.0609 59.4695 54.6765 57.6709 57.2546H41.6045C39.7199 57.2546 38.1865 58.788 38.1865 60.6726V76.1023C38.1865 76.9109 38.8424 77.5668 39.6514 77.5668V77.5668ZM55.7646 81.0927C54.4184 81.0927 53.3232 79.9976 53.3232 78.6513C53.3232 77.305 54.4184 76.2099 55.7646 76.2099C57.1109 76.2099 58.2061 77.305 58.2061 78.6513C58.2061 79.9976 57.1109 81.0927 55.7646 81.0927ZM66.5068 91.2386C65.1605 91.2386 64.0654 90.1435 64.0654 88.7972C64.0654 87.4509 65.1605 86.3558 66.5068 86.3558C67.8531 86.3558 68.9482 87.4509 68.9482 88.7972C68.9482 90.1435 67.8531 91.2386 66.5068 91.2386ZM87.5029 97.5863C87.5029 98.9326 86.4078 100.028 85.0615 100.028C83.7152 100.028 82.6201 98.9326 82.6201 97.5863C82.6201 96.24 83.7152 95.1449 85.0615 95.1449C86.4078 95.1449 87.5029 96.24 87.5029 97.5863ZM103.616 86.3558C104.963 86.3558 106.058 87.4509 106.058 88.7972C106.058 90.1435 104.963 91.2386 103.616 91.2386C102.27 91.2386 101.175 90.1435 101.175 88.7972C101.175 87.4509 102.27 86.3558 103.616 86.3558ZM114.261 76.2099C115.607 76.2099 116.702 77.305 116.702 78.6513C116.702 79.9976 115.607 81.0927 114.261 81.0927C112.914 81.0927 111.819 79.9976 111.819 78.6513C111.819 77.305 112.914 76.2099 114.261 76.2099ZM127.542 60.1839C127.811 60.1839 128.03 60.4029 128.03 60.6722V63.1136H113.377C113.398 62.3302 113.285 61.2761 112.971 60.1839H127.542ZM41.6045 60.1839H56.1754C55.9801 60.8277 55.7422 62.0095 55.7689 63.1136H41.1162V60.6722C41.1162 60.4029 41.3354 60.1839 41.6045 60.1839V60.1839Z" fill="white"></path></g><defs><clipPath id="clip0_101_75"><rect width="100" height="100" fill="white" transform="translate(34.5732 33.6675)"></rect></clipPath></defs></svg>