<svg xmlns="http://www.w3.org/2000/svg" width="169" height="168" viewBox="0 0 169 168" fill="none"><circle cx="84.574" cy="83.8282" r="83.6287" fill="#ED8282"></circle><circle cx="60.8101" cy="50.1755" r="40.9048" fill="#ED9797"></circle><g clip-path="url(#clip0_101_175)"><path d="M52.6032 44.2251C52.6032 41.5159 50.3999 39.3125 47.6907 39.3125C44.9815 39.3125 42.7773 41.5159 42.7773 44.2251C42.7773 46.9343 44.9815 49.1376 47.6907 49.1376C50.3991 49.1376 52.6032 46.9343 52.6032 44.2251ZM45.707 44.2251C45.707 43.1318 46.5974 42.2422 47.6907 42.2422C48.784 42.2422 49.6736 43.1318 49.6736 44.2251C49.6736 45.3184 48.784 46.2079 47.6907 46.2079C46.5974 46.2079 45.707 45.3184 45.707 44.2251Z" fill="white"></path><path d="M59.3623 49.1376C62.0715 49.1376 64.2756 46.9343 64.2756 44.2251C64.2756 41.5159 62.0715 39.3125 59.3623 39.3125C56.6531 39.3125 54.4497 41.5159 54.4497 44.2251C54.4497 46.9343 56.6531 49.1376 59.3623 49.1376ZM59.3623 42.2422C60.4563 42.2422 61.3459 43.1318 61.3459 44.2251C61.3459 45.3184 60.4556 46.2079 59.3623 46.2079C58.269 46.2079 57.3794 45.3184 57.3794 44.2251C57.3794 43.1318 58.269 42.2422 59.3623 42.2422Z" fill="white"></path><path d="M71.0344 49.1376C73.7429 49.1376 75.947 46.9343 75.947 44.2251C75.947 41.5159 73.7429 39.3125 71.0344 39.3125C68.3252 39.3125 66.1211 41.5159 66.1211 44.2251C66.1211 46.9343 68.3252 49.1376 71.0344 49.1376ZM71.0344 42.2422C72.1277 42.2422 73.0173 43.1318 73.0173 44.2251C73.0173 45.3184 72.1277 46.2079 71.0344 46.2079C69.9404 46.2079 69.0508 45.3184 69.0508 44.2251C69.0508 43.1318 69.9404 42.2422 71.0344 42.2422Z" fill="white"></path><path d="M87.2437 45.6897H122.92C123.73 45.6897 124.385 45.0343 124.385 44.2249C124.385 43.4154 123.73 42.76 122.92 42.76H87.2437C86.4342 42.76 85.7788 43.4154 85.7788 44.2249C85.7788 45.0343 86.4342 45.6897 87.2437 45.6897Z" fill="white"></path><path d="M128.458 34.0237H40.6907C37.3185 34.0237 34.5742 36.7672 34.5742 40.1402V121.634C34.5742 125.007 37.3185 127.751 40.6907 127.751H128.458C131.83 127.751 134.574 125.007 134.574 121.634V40.1402C134.574 36.7672 131.83 34.0237 128.458 34.0237V34.0237ZM128.458 124.821H40.6907C38.9337 124.821 37.5039 123.391 37.5039 121.634V54.4262H45.6696C46.4791 54.4262 47.1345 53.7708 47.1345 52.9614C47.1345 52.1526 46.4791 51.4965 45.6696 51.4965H37.5039V40.1402C37.5039 38.3831 38.9337 36.9534 40.6907 36.9534H128.458C130.215 36.9534 131.645 38.3831 131.645 40.1402V51.4965H51.1384C50.3297 51.4965 49.6736 52.1526 49.6736 52.9614C49.6736 53.7708 50.3297 54.4262 51.1384 54.4262H131.645V121.634C131.645 123.391 130.215 124.821 128.458 124.821V124.821Z" fill="white"></path><path d="M117.465 58.0784H104.663C102.106 58.0784 100.025 60.1589 100.025 62.7163V64.4886C98.5229 64.9654 97.3351 66.1541 96.8597 67.6571L73.9799 67.7433C73.5031 66.2449 72.3167 65.06 70.8176 64.584V62.8124C70.8176 60.255 68.737 58.1745 66.1797 58.1745H53.3783C50.8209 58.1745 48.7404 60.255 48.7404 62.8124V75.6138C48.7404 78.1711 50.8209 80.2509 53.3783 80.2509H55.1498C55.6259 81.7524 56.813 82.9395 58.3145 83.4156V89.4008C58.3145 92.4892 60.8269 95.0016 63.9153 95.0016H77.7138C78.1898 96.5023 79.377 97.6894 80.8777 98.1655V100.039C80.8777 102.54 82.9132 104.576 85.4149 104.576H87.3993C87.8204 106.044 88.9175 107.228 90.3305 107.77C89.9094 108.609 89.0411 109.186 88.0409 109.186H72.3946C72.0154 107.498 70.7542 106.14 69.1231 105.622V103.849C69.1231 101.292 67.0425 99.2115 64.4852 99.2115H51.683C49.1264 99.2115 47.0459 101.292 47.0459 103.849V116.652C47.0459 119.209 49.1264 121.289 51.683 121.289H64.4852C67.0425 121.289 69.1231 119.209 69.1231 116.652V114.879C70.4872 114.446 71.5927 113.426 72.1397 112.116H88.0409C90.6258 112.116 92.7994 110.32 93.3792 107.911C94.9936 107.457 96.27 106.186 96.7331 104.576H98.4177C100.92 104.576 102.955 102.54 102.955 100.039V96.1849C102.955 95.3754 102.299 94.7201 101.49 94.7201C100.681 94.7201 100.025 95.3754 100.025 96.1849V100.039C100.025 100.925 99.3042 101.646 98.4177 101.646H96.653C95.1302 97.2759 88.9824 97.3102 87.4786 101.646H85.4149C84.5284 101.646 83.8074 100.925 83.8074 100.039V98.1655C84.1202 98.0663 84.4154 97.9389 84.7038 97.7779C84.7244 97.7573 87.1971 96.5084 87.1971 93.5367C87.1971 91.4318 85.833 89.5542 83.8074 88.908V87.0357C83.8074 86.1492 84.5284 85.4282 85.4149 85.4282H98.4177C99.3042 85.4282 100.025 86.1492 100.025 87.0357V90.8893C100.025 91.6981 100.681 92.3542 101.49 92.3542C102.299 92.3542 102.955 91.6981 102.955 90.8893V87.0357C102.955 84.5341 100.919 82.4985 98.4177 82.4985H85.4149C82.9132 82.4985 80.8777 84.5341 80.8777 87.0357V88.908C79.377 89.3841 78.1898 90.5712 77.7138 92.0719H63.916C62.4428 92.0719 61.2442 90.8733 61.2442 89.4008V83.4156C62.7449 82.9395 63.932 81.7524 64.4081 80.2509H66.1804C68.737 80.2509 70.8176 78.1711 70.8176 75.6138V73.8415C72.3206 73.3646 73.5085 72.176 73.983 70.673L96.8628 70.5868C97.3396 72.0852 98.526 73.2708 100.025 73.7461V75.5184C100.025 78.0758 102.106 80.1563 104.663 80.1563H117.465C120.022 80.1563 122.102 78.0758 122.102 75.5184V62.7163C122.102 60.1589 120.022 58.0784 117.465 58.0784V58.0784ZM67.6582 112.175C66.5962 112.175 65.7333 111.312 65.7333 110.25C65.7333 109.189 66.597 108.326 67.6582 108.326C68.7195 108.326 69.5831 109.189 69.5831 110.25C69.5831 111.312 68.7195 112.175 67.6582 112.175ZM66.1934 116.652C66.1934 117.593 65.4274 118.359 64.4852 118.359H51.683C50.7416 118.359 49.9756 117.593 49.9756 116.652V103.849C49.9756 102.907 50.7416 102.141 51.683 102.141H64.4852C65.4274 102.141 66.1934 102.907 66.1934 103.849V105.622C61.6508 107.069 61.7035 113.448 66.1934 114.879V116.652ZM93.9903 103.245C93.9857 104.303 93.1244 105.161 92.0654 105.161C91.0072 105.161 90.1459 104.303 90.1413 103.245C90.3824 100.602 93.7592 100.713 93.9903 103.245V103.245ZM82.6347 91.634C83.5579 91.7759 84.2674 92.5754 84.2674 93.5367C84.2674 94.6003 83.4023 95.4616 82.3425 95.4616C81.2805 95.4616 80.4176 94.598 80.4176 93.5367C80.4176 92.3626 81.4667 91.4554 82.6347 91.634V91.634ZM69.3527 71.1376C68.2915 71.1376 67.4278 70.274 67.4278 69.2127C67.4278 68.1515 68.2915 67.2878 69.3527 67.2878C70.414 67.2878 71.2776 68.1515 71.2776 69.2127C71.2776 70.274 70.4147 71.1376 69.3527 71.1376ZM59.7794 80.7117C58.6121 80.7117 57.6965 79.6703 57.8766 78.4939C58.0177 77.5707 58.8173 76.8619 59.7794 76.8619C60.8398 76.8619 61.7043 77.7241 61.7043 78.7861C61.7043 79.8481 60.8406 80.7117 59.7794 80.7117ZM67.8879 75.6138C67.8879 76.5552 67.1219 77.3212 66.1797 77.3212H64.4081C63.6467 74.9431 61.2274 73.5355 58.8058 74.0299C58.7852 74.0406 56.0616 74.4732 55.1506 77.3212H53.3783C52.4361 77.3212 51.6701 76.5552 51.6701 75.6138V62.8116C51.6701 61.8702 52.4361 61.1034 53.3783 61.1034H66.1804C67.1219 61.1034 67.8879 61.8702 67.8879 62.8116V64.584C65.8333 65.2386 64.3936 67.2001 64.5042 69.4576C64.5126 69.4774 64.5332 72.7718 67.8879 73.8415V75.6138ZM101.49 67.1924C102.549 67.1924 103.415 68.0538 103.415 69.1173C103.415 70.1824 102.547 71.0422 101.49 71.0422C100.429 71.0422 99.5651 70.1786 99.5651 69.1173C99.5651 68.0561 100.429 67.1924 101.49 67.1924V67.1924ZM119.173 75.5184C119.173 76.4599 118.407 77.2266 117.465 77.2266H104.663C103.721 77.2266 102.955 76.4599 102.955 75.5184V73.7461C105.048 73.0793 106.451 71.0895 106.339 68.8686V68.8679C106.237 66.8537 104.885 65.1035 102.955 64.4886V62.7163C102.955 61.7748 103.721 61.0088 104.663 61.0088H117.465C118.407 61.0088 119.173 61.7748 119.173 62.7163V75.5184Z" fill="white"></path></g><defs><clipPath id="clip0_101_175"><rect width="100" height="100" fill="white" transform="translate(34.5742 33.8284)"></rect></clipPath></defs></svg>