<svg xmlns="http://www.w3.org/2000/svg" width="96" height="96" viewBox="0 0 96 96" fill="none"><g clip-path="url(#clip0_101_251)"><path d="M36.3922 49.2687C36.8802 49.2687 37.3328 49.013 37.5844 48.5948L40.095 44.4246L43.4219 49.7112C43.682 50.1248 44.1366 50.3703 44.6289 50.3614C45.1174 50.3512 45.5648 50.0855 45.8075 49.6613L51.1633 40.3031L58.3565 53.412C58.5966 53.8495 59.0527 54.125 59.5518 54.1339C59.56 54.1339 59.5683 54.1341 59.5765 54.1341C60.0662 54.1341 60.5208 53.8764 60.772 53.4546L65.2535 45.9315H76.0601C76.8287 45.9315 77.4517 45.3084 77.4517 44.5399C77.4517 43.7713 76.8287 43.1483 76.0601 43.1483H64.4627C63.9723 43.1483 63.5181 43.4063 63.2672 43.8277L59.6261 49.94L52.4088 36.7873C52.1665 36.3459 51.7049 36.0698 51.2013 36.0652C51.197 36.0652 51.1929 36.0652 51.1887 36.0652C50.6899 36.0652 50.229 36.3322 49.981 36.7654L44.5429 46.2673L41.2465 41.0291C40.9916 40.6241 40.5468 40.3788 40.0687 40.3788C40.0642 40.3788 40.0596 40.3788 40.0549 40.3788C39.5718 40.3834 39.1257 40.6385 38.8765 41.0525L35.6057 46.4855H27.6968C26.9282 46.4855 26.3052 47.1086 26.3052 47.8771C26.3052 48.6456 26.9282 49.2687 27.6968 49.2687H36.3922Z" fill="#081F7D"></path><path d="M78.5163 10.6458C77.7478 10.6458 77.1247 11.2688 77.1247 12.0374V16.1424H73.02C72.2515 16.1424 71.6284 16.7655 71.6284 17.534C71.6284 18.3025 72.2515 18.9256 73.02 18.9256H77.1247V23.0308C77.1247 23.7994 77.7478 24.4224 78.5163 24.4224C79.2848 24.4224 79.9079 23.7994 79.9079 23.0308V18.9256H84.0126C84.7811 18.9256 85.4042 18.3025 85.4042 17.534C85.4042 16.7655 84.7811 16.1424 84.0126 16.1424H79.9079V12.0374C79.9079 11.2688 79.2848 10.6458 78.5163 10.6458V10.6458Z" fill="#081F7D"></path><path d="M83.4267 58.3247C90.2064 51.0767 92.1494 40.1166 88.4227 30.7205C92.4218 27.7065 95.0122 22.9174 95.0122 17.5339C95.0122 8.43746 87.6122 1.03711 78.5163 1.03711C74.78 1.03711 71.1212 2.31942 68.2137 4.64785C67.6138 5.12823 67.5169 6.00401 67.9973 6.60389C68.4777 7.20357 69.3535 7.30062 69.9534 6.82023C72.4041 4.85752 75.365 3.82031 78.5162 3.82031C86.0772 3.82031 92.2288 9.9723 92.2288 17.5339C92.2288 25.0986 86.0774 31.2529 78.5162 31.2529C71.476 31.2529 65.6604 25.9206 64.8881 19.083C64.8866 19.0673 64.884 19.0513 64.882 19.0353C64.828 18.542 64.7981 18.0414 64.7981 17.5339C64.7981 15.386 65.2807 13.332 66.2322 11.4287C66.5758 10.7412 66.2972 9.90532 65.6099 9.5615C64.9219 9.21806 64.0866 9.49656 63.7427 10.1838C62.5962 12.477 62.0149 14.95 62.0149 17.5337C62.0149 17.7675 62.021 17.9998 62.0307 18.2314C58.5168 19.4873 55.2369 21.553 52.4882 24.2563L50.95 25.7685C50.9426 25.761 50.937 25.7555 50.9296 25.7481L49.4174 24.2581C44.5245 19.4339 38.1195 16.7379 31.8424 16.8678C26.6193 16.9754 21.9973 19.022 18.4775 22.7849C17.9524 23.3471 17.9821 24.2284 18.5443 24.7535C19.1065 25.2768 19.986 25.2489 20.5111 24.6867C23.5058 21.4842 27.4431 19.7419 31.8999 19.651C37.4292 19.5378 43.1014 21.9406 47.4636 26.2398L48.9777 27.7316C49.7087 28.4515 50.3321 28.8096 50.9537 28.8096C51.5697 28.8096 52.1839 28.457 52.902 27.752L54.4402 26.2398C56.7515 23.9679 59.4778 22.1989 62.3964 21.0643C64.0175 28.4728 70.6287 34.0359 78.516 34.0359C81.2162 34.0359 83.767 33.3835 86.0189 32.2279C89.1025 40.522 87.332 50.0638 81.4038 56.4113L61.4264 76.8608L59.7731 77.1837C59.3724 77.2616 59.018 77.3321 58.6951 77.3971C56.5984 77.822 56.0975 77.9222 53.6427 77.5436L41.7398 75.3672C40.1182 74.8068 40.2814 73.5154 40.3724 73.1276C40.5152 72.5246 41.0756 71.5505 42.2798 71.7323C42.2909 71.7342 42.302 71.736 42.3132 71.7379C42.8494 71.8065 43.4246 71.8808 44.0258 71.9568C46.2802 72.2481 48.8333 72.5766 51.1007 72.8085C55.7394 73.2779 58.363 70.8436 58.9085 68.2199C59.4633 65.5462 57.9399 61.9911 53.2827 60.5049C53.2271 60.4882 53.1695 60.4733 53.1102 60.4622L45.4452 59.0558C41.2853 58.2932 38.0493 58.8813 33.1509 59.772C31.8558 60.0076 30.3862 60.2729 28.7497 60.542L25.1167 61.1394L23.9979 59.9946L20.5003 56.4136C13.9635 49.4055 12.5144 38.4285 16.9823 29.7134C17.333 29.0306 17.0621 28.1919 16.3793 27.8412C15.6946 27.4905 14.856 27.7596 14.5053 28.4442C9.51035 38.1892 11.1432 50.4761 18.4778 58.3247C18.4853 58.3321 18.4927 58.3395 18.4982 58.347L21.7639 61.6905L15.682 62.6903V62.5314C15.682 61.4569 14.7341 60.5828 13.5688 60.5828H2.12002C0.957754 60.5828 0.012207 61.4569 0.012207 62.5314V87.0171C0.012207 88.0916 0.957754 88.9657 2.12002 88.9657H13.569C14.7342 88.9657 15.6822 88.0916 15.6822 87.0171V86.8485L28.1968 90.2536L39.7489 93.3931C42.3855 94.2113 44.5101 94.549 46.449 94.549C49.518 94.549 52.1249 93.7066 55.5687 92.5934C55.8748 92.495 56.1884 92.393 56.5112 92.2891L79.276 84.9896C81.9145 84.1436 83.7922 82.2436 84.2969 79.9075C84.6884 78.0966 84.1429 76.3079 82.8366 75.1223C81.779 74.163 79.2927 72.7862 74.5 74.3021L66.2357 75.9183L83.4063 58.347C83.4137 58.3395 83.4192 58.3321 83.4267 58.3247V58.3247ZM2.79541 86.1825V63.3658H12.8988V64.322C12.8988 64.3249 12.8984 64.3277 12.8984 64.3307V85.0266C12.8984 85.0282 12.8988 85.0297 12.8988 85.0314V86.1825H2.79541ZM75.27 76.9777C77.838 76.1539 79.9143 76.2281 80.9682 77.1837C81.5359 77.6995 81.7586 78.4788 81.5768 79.3175C81.2836 80.6701 80.1054 81.8001 78.4262 82.3382L55.6596 89.6395C55.3349 89.7434 55.0194 89.8454 54.7114 89.9456C49.2656 91.7046 46.5325 92.5896 40.5505 90.7286C40.5356 90.723 40.5189 90.7193 40.5022 90.7138L15.682 83.9638V65.5109L29.2006 63.2899C30.8594 63.0172 32.3419 62.7463 33.65 62.5088C38.4093 61.6441 41.2834 61.1228 44.9424 61.7944L52.5183 63.1842C55.4722 64.1546 56.4908 66.1752 56.1828 67.654C55.8284 69.3629 53.9433 70.2999 51.3827 70.0401C49.1524 69.8119 46.6179 69.4853 44.382 69.1977C43.7846 69.1198 43.2112 69.0456 42.6787 68.9788C40.018 68.5854 38.1421 70.4465 37.6634 72.4931C37.5613 72.9291 37.5205 73.393 37.5502 73.8605C37.6522 75.5527 38.6635 77.308 40.9717 78.0446C41.0292 78.0632 41.7974 78.2061 41.7974 78.2061L53.1621 80.2842C53.1732 80.286 53.1862 80.2879 53.1992 80.2897C55.5445 80.6553 56.5595 80.6237 57.9975 80.3695C58.3741 80.3027 59.9105 79.991 60.3057 79.9149L62.8105 79.4251C62.8105 79.4251 75.2181 76.9944 75.27 76.9777V76.9777Z" fill="#081F7D"></path></g><defs><clipPath id="clip0_101_251"><rect width="95" height="95" fill="white" transform="translate(0.012207 0.292969)"></rect></clipPath></defs></svg>