<svg xmlns="http://www.w3.org/2000/svg" width="95" height="96" viewBox="0 0 95 96" fill="none"><g clip-path="url(#clip0_101_257)"><path d="M85.0392 53.0189H35.1045V50.3691C35.1045 47.9973 33.1748 46.0676 30.803 46.0676H16.9992C16.4648 46.0676 15.9534 46.1663 15.4809 46.3452V37.1131C15.4809 35.6326 14.2765 34.4282 12.796 34.4282H8.41338C6.9329 34.4282 5.72852 35.6326 5.72852 37.1131V82.6515C5.72852 83.4202 6.35158 84.0431 7.12012 84.0431C7.88865 84.0431 8.51172 83.4202 8.51172 82.6515V37.2116H12.6977V92.3018H8.51172V89.1456C8.51172 88.3769 7.88865 87.754 7.12012 87.754C6.35158 87.754 5.72852 88.3769 5.72852 89.1456V92.4001C5.72852 93.8806 6.9329 95.085 8.41338 95.085H12.796C14.2765 95.085 15.4809 93.8806 15.4809 92.4001V83.502H32.3213V85.4488C32.3213 87.5533 34.0333 89.2651 36.1378 89.2651H79.1036V92.4001C79.1036 93.8806 80.308 95.085 81.7885 95.085H86.1711C87.6515 95.085 88.8559 93.8806 88.8559 92.4001V85.4488V56.8354C88.8557 54.7311 87.1437 53.0189 85.0392 53.0189V53.0189ZM32.3213 73.792H15.4809V60.3565H32.3213V73.792ZM16.9992 48.8508H30.8031C31.6403 48.8508 32.3215 49.5319 32.3215 50.3691V57.5733H15.4809V50.3691C15.4809 49.5319 16.162 48.8508 16.9992 48.8508V48.8508ZM15.4809 80.7188V76.7125H32.3213V80.7188H15.4809ZM35.1045 85.4488C35.1045 82.1711 35.1045 60.4087 35.1045 55.8021H85.0392C85.6089 55.8021 86.0724 56.2656 86.0724 56.8354V85.4488C86.0724 86.0184 85.6089 86.4819 85.0392 86.4819C83.1127 86.4819 38.3426 86.4819 36.1378 86.4819C35.568 86.4821 35.1045 86.0186 35.1045 85.4488V85.4488ZM86.0725 92.3018H81.8868V89.2653H85.0394C85.1567 89.2653 85.2721 89.2581 85.3868 89.2477C85.4163 89.2449 85.4456 89.2419 85.4749 89.2386C85.5792 89.2267 85.6825 89.2115 85.7842 89.1913C85.7939 89.1894 85.8039 89.1881 85.8135 89.1861C85.9009 89.1681 85.9876 89.1473 86.0727 89.1232V92.3018H86.0725Z" fill="#081F7D"></path><path d="M86.724 34.012C75.1825 34.012 75.9519 33.9931 75.6484 34.0527C75.4248 33.9985 75.4968 34.012 73.4823 34.012L70.3465 32.2653H85.3814C87.5261 32.2653 89.271 30.5204 89.271 28.3757C89.271 26.2309 87.5261 24.486 85.3814 24.486H83.8544C83.0155 21.4522 81.6599 18.6133 79.8128 16.0344C79.3652 15.4095 78.4958 15.2658 77.871 15.7134C77.2463 16.1609 77.1025 17.0304 77.55 17.6551C79.0541 19.755 80.1957 22.0463 80.9556 24.486H34.9208C38.0551 14.3723 47.3384 7.56881 57.9388 7.56881C63.5578 7.56881 69.0485 9.54414 73.3834 13.1662C73.9734 13.6592 74.8507 13.5805 75.3435 12.9907C75.8363 12.4008 75.7576 11.5234 75.168 11.0306C71.2745 7.77736 66.5328 5.70573 61.5379 5.02923V3.6842C61.5379 1.69959 59.9234 0.0849609 57.9388 0.0849609C55.9542 0.0849609 54.3396 1.69959 54.3396 3.68401V5.03053C49.5145 5.68588 44.912 7.6447 41.1008 10.7096C36.7132 14.2381 33.5188 19.0976 32.0222 24.4859H30.7729C28.6282 24.4859 26.8833 26.2307 26.8833 28.3755C26.8833 30.5202 28.6282 32.2651 30.7729 32.2651H38.9563C38.7691 32.5408 38.6108 32.8392 38.4937 33.1618C38.2046 33.9597 38.4935 34.8605 39.1804 35.3042L51.8035 43.4551C51.998 43.5807 52.2207 43.6556 52.4515 43.6734C70.9679 45.102 66.3163 44.7038 73.9282 45.482V47.2113C73.9282 48.3867 74.8845 49.343 76.0599 49.343H79.3059C79.4767 50.3485 80.3518 51.1174 81.4051 51.1174H86.7242C87.8996 51.1174 88.856 50.1611 88.856 48.9857V36.144C88.8558 34.9683 87.8995 34.012 86.724 34.012V34.012ZM57.1228 4.79841V3.68401C57.1228 3.23406 57.4889 2.86816 57.9388 2.86816C58.3888 2.86816 58.7547 3.23425 58.7547 3.68401V4.79841C58.733 4.79767 58.7118 4.79804 58.6903 4.79748C58.1518 4.78227 57.6809 4.78078 57.1228 4.79841V4.79841ZM85.3814 27.2692C85.9915 27.2692 86.4878 27.7656 86.4878 28.3757C86.4878 28.9857 85.9915 29.4821 85.3814 29.4821H65.3503C61.9415 27.5832 63.4722 28.174 59.5713 27.2692H85.3814ZM29.6665 28.3757C29.6665 27.7656 30.1628 27.2692 30.7729 27.2692H52.3181C52.3171 27.2711 52.3164 27.273 52.3153 27.2746C52.041 27.7654 51.8638 28.63 51.985 29.4819H30.7729C30.1628 29.4821 29.6665 28.9857 29.6665 28.3757V28.3757ZM53.7249 32.2653C53.9455 32.4146 54.1826 32.5449 54.4368 32.6501L57.6607 34.0686C56.8807 34.1217 55.5896 34.194 52.5301 34.3787L47.3805 32.2653H53.7249ZM53.0168 40.9255L41.5526 33.5229C41.6231 33.4723 41.6996 33.4285 41.7809 33.3925C42.0959 33.2529 42.4449 33.2483 42.7639 33.3791L51.7677 37.0741C51.9616 37.1537 52.1704 37.1877 52.38 37.1758C58.4801 36.8065 58.1864 36.8485 59.585 36.6768C60.7087 36.539 61.5835 35.6241 61.6648 34.5015C61.7897 32.7802 60.3547 32.1849 59.4974 31.8292C59.3674 31.7754 59.2306 31.7188 59.089 31.6563L55.5419 30.0957C55.5303 30.0907 55.5187 30.0857 55.5071 30.081C55.1324 29.9283 54.8354 29.5856 54.7513 29.155C54.7421 29.1076 54.7348 29.0598 54.7311 29.0115C54.7309 29.0089 54.7304 29.0063 54.7302 29.0036L61.655 30.6095L72.4434 36.6191C72.8338 36.8368 73.0897 36.795 73.9278 36.795V42.6841C65.9496 41.8686 71.8727 42.3804 53.0168 40.9255V40.9255ZM76.7112 36.7952H79.2734V46.5598H76.7112C76.7112 44.5051 76.7112 38.5468 76.7112 36.7952ZM86.0726 48.334H82.0566V47.9512V36.795H86.0726V48.334Z" fill="#081F7D"></path></g><defs><clipPath id="clip0_101_257"><rect width="95" height="95" fill="white" transform="translate(0 0.0849609)"></rect></clipPath></defs></svg>