<svg xmlns="http://www.w3.org/2000/svg" width="96" height="96" viewBox="0 0 96 96" fill="none"><g clip-path="url(#clip0_101_293)"><path d="M74.544 13.2649L48.3661 0.507245C48.2142 0.433237 48.0474 0.394775 47.8785 0.394775C47.7095 0.394775 47.5428 0.433237 47.3909 0.507245L21.213 13.2649C21.0254 13.3563 20.8673 13.4986 20.7567 13.6756C20.6461 13.8526 20.5875 14.0571 20.5875 14.2657V17.4959H8.72363C6.94293 17.4977 5.23565 18.2058 3.97642 19.4648C2.71719 20.7239 2.00885 22.4311 2.00684 24.2118V75.4366C2.00885 77.2173 2.71719 78.9245 3.97642 80.1836C5.23565 81.4426 6.94293 82.1507 8.72363 82.1525H39.6729V82.8277C39.6879 83.8989 39.4343 84.9567 38.9351 85.9046C38.4359 86.8524 37.7072 87.6601 36.8154 88.2537L31.2294 92.0874C30.9103 92.3064 30.6697 92.6218 30.5428 92.9874C30.4158 93.3529 30.4092 93.7495 30.5239 94.1192C30.6385 94.4888 30.8685 94.812 31.18 95.0415C31.4916 95.271 31.8684 95.3948 32.2554 95.3948H63.5015C63.8885 95.3948 64.2653 95.2709 64.5768 95.0413C64.8883 94.8118 65.1182 94.4886 65.2328 94.119C65.3474 93.7494 65.3407 93.3528 65.2138 92.9873C65.0868 92.6217 64.8463 92.3064 64.5272 92.0874L58.9412 88.2537C58.0494 87.66 57.3207 86.8524 56.8215 85.9046C56.3223 84.9567 56.0687 83.8989 56.0837 82.8277V82.1525H87.0329C88.8137 82.1507 90.5209 81.4426 91.7802 80.1836C93.0394 78.9245 93.7477 77.2173 93.7497 75.4366V24.2118C93.7477 22.4311 93.0394 20.7239 91.7802 19.4648C90.5209 18.2058 88.8137 17.4977 87.0329 17.4959H75.1691V14.2657C75.1691 14.0571 75.1106 13.8526 75 13.6757C74.8895 13.4987 74.7315 13.3564 74.544 13.2649V13.2649ZM20.5894 32.9423C21.0792 41.0076 23.8731 48.7629 28.6392 55.2877C33.4053 61.8124 39.9435 66.8326 47.4777 69.7522C47.7356 69.8519 48.0214 69.8519 48.2793 69.7522C55.8134 66.8326 62.3516 61.8124 67.1177 55.2876C71.8838 48.7629 74.6777 41.0076 75.1676 32.9423C75.1689 32.9204 75.1695 32.8983 75.1695 32.8765V25.9886H85.2567V70.5449H10.5002V25.9886H20.5875V32.8765C20.5875 32.8983 20.5881 32.9212 20.5894 32.9423ZM22.8141 14.9615L47.8785 2.74642L72.9429 14.9615V32.8431C72.4774 40.403 69.8747 47.6754 65.4375 53.8138C61.0003 59.9523 54.9111 64.7044 47.8785 67.5173C40.8459 64.7045 34.7566 59.9523 30.3194 53.8139C25.8822 47.6754 23.2795 40.403 22.8141 32.8431V14.9615ZM57.6815 90.0895L62.1676 93.1682H33.5893L38.0755 90.0895C39.2688 89.2949 40.244 88.214 40.9119 86.9455C41.5799 85.6769 41.9192 84.2612 41.899 82.8277V82.1525H53.8579V82.8277C53.8377 84.2612 54.1771 85.6769 54.845 86.9455C55.513 88.214 56.4881 89.2949 57.6815 90.0895ZM87.0333 19.7225C88.2237 19.7236 89.365 20.1969 90.2068 21.0386C91.0486 21.8802 91.5222 23.0214 91.5236 24.2118V75.4366C91.5222 76.627 91.0486 77.7682 90.2068 78.6099C89.365 79.4515 88.2237 79.9248 87.0333 79.9259H8.72363C7.53326 79.9248 6.39194 79.4515 5.55013 78.6099C4.70832 77.7682 4.23477 76.627 4.2334 75.4366V24.2118C4.23477 23.0214 4.70832 21.8802 5.55013 21.0386C6.39194 20.1969 7.53326 19.7236 8.72363 19.7225H20.5875V23.762H10.282C9.74957 23.7626 9.23908 23.9744 8.86257 24.3509C8.48605 24.7274 8.27427 25.2379 8.27368 25.7704V70.7631C8.27432 71.2955 8.48612 71.806 8.86262 72.1825C9.23912 72.559 9.74959 72.7708 10.282 72.7714H85.4749C86.0074 72.7708 86.5178 72.559 86.8943 72.1825C87.2708 71.806 87.4826 71.2955 87.4833 70.7631V25.7704C87.4827 25.2379 87.2709 24.7274 86.8944 24.3509C86.5179 23.9744 86.0074 23.7626 85.4749 23.762H75.1695V19.7225H87.0333ZM38.2868 50.6576L41.237 48.7442C41.7884 49.0136 42.3558 49.249 42.9359 49.4493L43.6666 52.886C43.7197 53.1354 43.8568 53.359 44.055 53.5194C44.2531 53.6798 44.5004 53.7673 44.7554 53.7674H51.0001C51.2551 53.7673 51.5023 53.6798 51.7005 53.5194C51.8987 53.359 52.0358 53.1354 52.0889 52.886L52.8211 49.4491C53.4014 49.2487 53.9689 49.0133 54.5207 48.7441L57.4694 50.657C57.6833 50.7958 57.9383 50.857 58.1919 50.8303C58.4454 50.8036 58.6822 50.6907 58.8625 50.5105L63.2789 46.095C63.4592 45.9147 63.5721 45.678 63.5988 45.4244C63.6255 45.1709 63.5644 44.9158 63.4256 44.7019L61.5121 41.7517C61.7814 41.2003 62.0168 40.6329 62.2172 40.0528L65.6539 39.3225C65.9032 39.2694 66.1268 39.1323 66.2872 38.9341C66.4477 38.736 66.5352 38.4887 66.5352 38.2338V31.9882C66.5352 31.7333 66.4477 31.486 66.2872 31.2879C66.1268 31.0897 65.9032 30.9526 65.6539 30.8995L62.217 30.1673C62.0167 29.587 61.7812 29.0194 61.5119 28.4677L63.4251 25.519C63.5638 25.3052 63.625 25.0502 63.5984 24.7967C63.5718 24.5433 63.459 24.3066 63.2789 24.1262L58.8629 19.7102C58.6826 19.5299 58.4458 19.417 58.1923 19.3903C57.9387 19.3636 57.6837 19.4247 57.4698 19.5635L54.5196 21.477C53.9681 21.2078 53.4008 20.9723 52.8207 20.7719L52.0904 17.3352C52.0373 17.0859 51.9002 16.8623 51.702 16.7019C51.5038 16.5414 51.2566 16.4539 51.0016 16.4539H44.7561C44.501 16.4537 44.2536 16.5412 44.0553 16.7016C43.8569 16.8621 43.7197 17.0857 43.6666 17.3352L42.9344 20.7725C42.3542 20.9729 41.7868 21.2083 41.2352 21.4776L38.2861 19.5642C38.0722 19.4254 37.8171 19.3642 37.5635 19.391C37.3099 19.4177 37.0731 19.5306 36.8928 19.711L32.4781 24.1262C32.2978 24.3066 32.1848 24.5433 32.1581 24.7969C32.1313 25.0505 32.1925 25.3056 32.3313 25.5195L34.2443 28.468C33.975 29.0199 33.7395 29.5876 33.5392 30.168L30.1031 30.8987C29.8537 30.9518 29.6301 31.0889 29.4697 31.2871C29.3093 31.4853 29.2218 31.7325 29.2217 31.9875V38.2321C29.2218 38.487 29.3093 38.7343 29.4697 38.9325C29.6301 39.1306 29.8537 39.2677 30.1031 39.3209L33.5398 40.053C33.7401 40.6334 33.9756 41.201 34.2449 41.7528L32.3317 44.7015C32.1928 44.9154 32.1315 45.1705 32.1582 45.4242C32.1848 45.6778 32.2978 45.9146 32.4781 46.095L36.8941 50.511C37.0744 50.6912 37.311 50.804 37.5645 50.8307C37.818 50.8574 38.073 50.7963 38.2868 50.6576V50.6576ZM36.5076 41.2854C36.0749 40.4903 35.7271 39.6517 35.47 38.7837C35.4133 38.5916 35.3057 38.4185 35.1588 38.2824C35.0119 38.1463 34.8309 38.0524 34.6351 38.0105L31.4485 37.3318V32.8893L34.6347 32.2107C34.8306 32.1688 35.0115 32.0749 35.1585 31.9388C35.3054 31.8027 35.4129 31.6294 35.4697 31.4374C35.7267 30.5693 36.0745 29.7308 36.5074 28.9358C36.6032 28.7597 36.6497 28.561 36.642 28.3607C36.6343 28.1604 36.5726 27.9658 36.4634 27.7977L34.6894 25.0631L37.8307 21.922L40.5657 23.6963C40.7339 23.8054 40.9284 23.867 41.1287 23.8747C41.329 23.8825 41.5276 23.8359 41.7037 23.7401C42.4986 23.3074 43.337 22.9598 44.2048 22.7029C44.3969 22.6462 44.5702 22.5387 44.7063 22.3917C44.8424 22.2448 44.9363 22.0638 44.9782 21.868L45.6571 18.6808H50.0995L50.7784 21.868C50.8202 22.0638 50.9142 22.2447 51.0502 22.3917C51.1863 22.5386 51.3595 22.6462 51.5516 22.7029C52.4193 22.9597 53.2576 23.3075 54.0524 23.7403C54.2285 23.8361 54.4272 23.8826 54.6275 23.8749C54.8278 23.8672 55.0223 23.8055 55.1905 23.6963L57.9258 21.922L61.0671 25.0631L59.293 27.7977C59.1839 27.9659 59.1222 28.1604 59.1145 28.3607C59.1068 28.561 59.1533 28.7597 59.2492 28.9358C59.6818 29.731 60.0296 30.5695 60.2867 31.4375C60.3435 31.6296 60.4511 31.8027 60.598 31.9388C60.745 32.0748 60.9259 32.1687 61.1217 32.2105L64.3083 32.8893V37.3318L61.1211 38.0107C60.9253 38.0526 60.7443 38.1465 60.5974 38.2826C60.4504 38.4188 60.3429 38.592 60.2862 38.7841C60.0293 39.6518 59.6815 40.4899 59.2488 41.2847C59.153 41.4608 59.1065 41.6595 59.1142 41.8598C59.1219 42.0601 59.1836 42.2547 59.2928 42.4228L61.0673 45.1582L57.926 48.2993L55.1914 46.5253C55.0233 46.4162 54.8287 46.3545 54.6284 46.3467C54.4281 46.339 54.2294 46.3855 54.0533 46.4813C53.2581 46.9141 52.4196 47.2619 51.5516 47.5191C51.3595 47.5758 51.1863 47.6834 51.0502 47.8303C50.9142 47.9772 50.8202 48.1582 50.7784 48.354L50.0997 51.5406H45.6573L44.9784 48.3535C44.9365 48.1576 44.8426 47.9767 44.7065 47.8297C44.5703 47.6828 44.3971 47.5752 44.205 47.5185C43.3373 47.2615 42.4991 46.9138 41.7042 46.4811C41.5281 46.3853 41.3294 46.3387 41.1291 46.3464C40.9288 46.3542 40.7343 46.4158 40.5661 46.5249L37.8309 48.2995L34.6896 45.1584L36.4636 42.4238C36.5728 42.2556 36.6345 42.061 36.6422 41.8607C36.65 41.6603 36.6035 41.4616 36.5076 41.2854V41.2854ZM47.8785 44.9233C49.8193 44.9233 51.7165 44.3478 53.3303 43.2696C54.944 42.1914 56.2018 40.6588 56.9445 38.8657C57.6872 37.0727 57.8816 35.0996 57.503 33.1961C57.1243 31.2926 56.1897 29.5441 54.8174 28.1717C53.445 26.7994 51.6965 25.8648 49.793 25.4861C47.8895 25.1075 45.9164 25.3019 44.1234 26.0446C42.3303 26.7873 40.7977 28.0451 39.7195 29.6588C38.6413 31.2726 38.0658 33.1698 38.0658 35.1106C38.0688 37.7122 39.1036 40.2063 40.9432 42.0459C42.7828 43.8855 45.2769 44.9203 47.8785 44.9233V44.9233ZM43.7495 41.4697C44.0715 40.6361 44.6383 39.9195 45.3753 39.4141C46.1122 38.9087 46.9849 38.6382 47.8786 38.6382C48.7722 38.6382 49.6449 38.9087 50.3819 39.4141C51.1189 39.9195 51.6856 40.6361 52.0076 41.4697C50.7794 42.2704 49.3448 42.6968 47.8786 42.6968C46.4123 42.6968 44.9778 42.2704 43.7495 41.4697V41.4697ZM47.8785 36.0569C47.5511 36.0569 47.2311 35.9599 46.9589 35.7781C46.6867 35.5962 46.4745 35.3378 46.3493 35.0353C46.224 34.7329 46.1912 34.4001 46.255 34.0791C46.3188 33.758 46.4764 33.4631 46.7079 33.2316C46.9394 33.0001 47.2343 32.8424 47.5553 32.7786C47.8764 32.7147 48.2092 32.7475 48.5116 32.8727C48.8141 32.998 49.0726 33.2101 49.2544 33.4823C49.4363 33.7545 49.5334 34.0745 49.5334 34.4018C49.5329 34.8406 49.3584 35.2613 49.0481 35.5715C48.7379 35.8818 48.3172 36.0564 47.8785 36.0569V36.0569ZM47.8785 27.5236C49.3149 27.5228 50.722 27.93 51.9359 28.6978C53.1499 29.4657 54.1207 30.5626 54.7354 31.8608C55.3502 33.1591 55.5834 34.6052 55.4081 36.0309C55.2328 37.4565 54.656 38.8031 53.7451 39.9137C53.073 38.6538 52.0106 37.6457 50.7173 37.0403C51.2331 36.4873 51.576 35.7957 51.7041 35.0504C51.8321 34.3051 51.7397 33.5387 51.4382 32.8452C51.1366 32.1518 50.6391 31.5615 50.0068 31.1469C49.3744 30.7323 48.6347 30.5114 47.8785 30.5114C47.1223 30.5114 46.3826 30.7323 45.7502 31.1469C45.1178 31.5615 44.6203 32.1518 44.3188 32.8452C44.0173 33.5387 43.9248 34.3051 44.0529 35.0504C44.181 35.7957 44.5239 36.4873 45.0396 37.0403C43.7467 37.646 42.6844 38.6536 42.0113 39.9128C41.1008 38.8021 40.5245 37.4557 40.3495 36.0302C40.1745 34.6048 40.4079 33.1589 41.0226 31.861C41.6373 30.563 42.608 29.4663 43.8218 28.6986C45.0355 27.9309 46.4423 27.5237 47.8785 27.5244V27.5236Z" fill="#081F7D"></path></g><defs><clipPath id="clip0_101_293"><rect width="95" height="95" fill="white" transform="translate(0.378418 0.39502)"></rect></clipPath></defs></svg>