<svg xmlns="http://www.w3.org/2000/svg" width="102" height="101" viewBox="0 0 102 101" fill="none"><path d="M97.4202 79.2855H94.1677V32.2961C94.1677 31.2735 93.0959 30.544 92.1309 30.9135L61.6349 42.5859V32.2961C61.6349 31.2733 60.5631 30.544 59.5981 30.9135L44.0363 36.8697C43.2651 37.165 42.8816 38.0231 43.1797 38.7869C43.4777 39.5505 44.3447 39.9303 45.1159 39.6352L58.6408 34.4585V79.2857H32.2657L29.2087 45.7238L39.5254 41.7749C40.2966 41.4796 40.6801 40.6215 40.382 39.8577C40.0838 39.0941 39.2168 38.7139 38.4458 39.0094L28.9288 42.6521L26.3186 13.9936C26.2491 13.2296 25.6022 12.6443 24.8276 12.6443H15.3996C14.625 12.6443 13.9782 13.2296 13.9087 13.9936L7.96138 79.2855H4.57984C2.05454 79.2855 0 81.3199 0 83.8205C0 86.321 2.05454 88.3554 4.57984 88.3554H19.5356C20.3623 88.3554 21.0327 87.6916 21.0327 86.873C21.0327 86.0543 20.3625 85.3905 19.5356 85.3905H4.57984C3.70547 85.3905 2.99406 84.6861 2.99406 83.8203C2.99406 82.9545 3.70547 82.2501 4.57984 82.2501H74.402C75.2288 82.2501 75.8992 81.5865 75.8992 80.7676C75.8992 79.9488 75.2288 79.2852 74.402 79.2852H61.6347V45.7644L91.1733 34.4583V79.2855H80.3901C79.5634 79.2855 78.893 79.9493 78.893 80.768C78.893 81.5866 79.5632 82.2505 80.3901 82.2505H97.42C98.2943 82.2505 99.0057 82.9549 99.0057 83.8207C99.0057 84.6865 98.2943 85.3909 97.42 85.3909H25.5237C24.6969 85.3909 24.0266 86.0545 24.0266 86.8734C24.0266 87.6922 24.6969 88.3558 25.5237 88.3558H97.42C99.9453 88.3558 102 86.3214 102 83.8209C102 81.3199 99.9455 79.2855 97.4202 79.2855V79.2855ZM23.4594 15.6092L23.8855 20.2883H16.3415L16.7676 15.6092H23.4594ZM16.0714 23.253H24.1555L29.2593 79.2855H10.9676L16.0714 23.253Z" fill="#081F7D"></path><path d="M33.0635 50.503V57.8963C33.0635 58.7149 33.7336 59.3787 34.5606 59.3787H40.5396C41.3663 59.3787 42.0367 58.7151 42.0367 57.8963V50.503C42.0367 49.6843 41.3665 49.0205 40.5396 49.0205H34.5606C33.7338 49.0205 33.0635 49.6843 33.0635 50.503ZM36.0577 51.9854H39.0426V56.4138H36.0577V51.9854Z" fill="#081F7D"></path><path d="M47.3492 59.3782H53.3281C54.1549 59.3782 54.8253 58.7146 54.8253 57.8958V50.5025C54.8253 49.6838 54.1549 49.02 53.3281 49.02H47.3492C46.5224 49.02 45.8521 49.6838 45.8521 50.5025V57.8958C45.8521 58.7146 46.5222 59.3782 47.3492 59.3782V59.3782ZM48.8461 51.9851H51.831V56.4135H48.8461V51.9851Z" fill="#081F7D"></path><path d="M40.5396 64.1528H34.5606C33.7338 64.1528 33.0635 64.8164 33.0635 65.6353V73.0284C33.0635 73.8471 33.7336 74.5109 34.5606 74.5109H40.5396C41.3663 74.5109 42.0367 73.8471 42.0367 73.0284V65.6353C42.0367 64.8166 41.3663 64.1528 40.5396 64.1528ZM39.0424 71.5462H36.0575V67.1177H39.0424V71.5462Z" fill="#081F7D"></path><path d="M45.8521 73.0284C45.8521 73.8471 46.5224 74.5109 47.3492 74.5109H53.3281C54.1549 74.5109 54.8253 73.8471 54.8253 73.0284V65.6353C54.8253 64.8166 54.1549 64.1528 53.3281 64.1528H47.3492C46.5224 64.1528 45.8521 64.8164 45.8521 65.6353V73.0284ZM48.8461 67.1177H51.831V71.5462H48.8461V67.1177Z" fill="#081F7D"></path><path d="M74.5694 50.503C74.5694 49.6843 73.899 49.0205 73.0723 49.0205H67.0933C66.2666 49.0205 65.5962 49.6843 65.5962 50.503V57.8963C65.5962 58.7149 66.2666 59.3787 67.0933 59.3787H73.0723C73.899 59.3787 74.5694 58.7151 74.5694 57.8963V50.503ZM71.5753 56.4138H68.5904V51.9854H71.5753V56.4138Z" fill="#081F7D"></path><path d="M79.8819 59.3782H85.8608C86.6876 59.3782 87.358 58.7146 87.358 57.8958V50.5025C87.358 49.6838 86.6878 49.02 85.8608 49.02H79.8819C79.0551 49.02 78.3848 49.6838 78.3848 50.5025V57.8958C78.3848 58.7146 79.0551 59.3782 79.8819 59.3782ZM81.379 51.9851H84.3639V56.4135H81.379V51.9851Z" fill="#081F7D"></path><path d="M73.0723 64.1528H67.0933C66.2666 64.1528 65.5962 64.8164 65.5962 65.6353V73.0284C65.5962 73.8471 66.2666 74.5109 67.0933 74.5109H73.0723C73.899 74.5109 74.5694 73.8471 74.5694 73.0284V65.6353C74.5692 64.8166 73.899 64.1528 73.0723 64.1528ZM71.5751 71.5462H68.5902V67.1177H71.5751V71.5462Z" fill="#081F7D"></path><path d="M78.3848 73.0284C78.3848 73.8471 79.0549 74.5109 79.8819 74.5109H85.8608C86.6876 74.5109 87.358 73.8471 87.358 73.0284V65.6353C87.358 64.8166 86.6878 64.1528 85.8608 64.1528H79.8819C79.0551 64.1528 78.3848 64.8164 78.3848 65.6353V73.0284ZM81.379 67.1177H84.3639V71.5462H81.379V67.1177Z" fill="#081F7D"></path></svg>