<svg xmlns="http://www.w3.org/2000/svg" width="105" height="105" viewBox="0 0 105 105" fill="none"><g clip-path="url(#clip0_101_28)"><path d="M13.9813 51.0465H32.1996C33.0487 51.0465 33.7377 50.3641 33.7377 49.5231C33.7377 48.6812 33.0487 47.9996 32.1996 47.9996H13.9813C13.1313 47.9996 12.4424 48.6812 12.4424 49.5231C12.4424 50.3641 13.1313 51.0465 13.9813 51.0465Z" fill="#323339"></path><path d="M13.9813 58.6423H32.1996C33.0487 58.6423 33.7377 57.9608 33.7377 57.1189C33.7377 56.2778 33.0487 55.5955 32.1996 55.5955H13.9813C13.1313 55.5955 12.4424 56.2778 12.4424 57.1189C12.4424 57.9608 13.1313 58.6423 13.9813 58.6423Z" fill="#323339"></path><path d="M13.9813 66.2388H45.4007C46.2498 66.2388 46.9388 65.5564 46.9388 64.7153C46.9388 63.8735 46.2498 63.1919 45.4007 63.1919H13.9813C13.1313 63.1919 12.4424 63.8735 12.4424 64.7153C12.4424 65.5564 13.1313 66.2388 13.9813 66.2388Z" fill="#323339"></path><path d="M13.9813 73.8346H50.4179C51.267 73.8346 51.956 73.1522 51.956 72.3112C51.956 71.4693 51.267 70.7877 50.4179 70.7877H13.9813C13.1313 70.7877 12.4424 71.4693 12.4424 72.3112C12.4424 73.1522 13.1313 73.8346 13.9813 73.8346Z" fill="#323339"></path><path d="M92.5567 11.212C92.5567 10.371 91.8686 9.6886 91.0186 9.6886H54.582C53.7329 9.6886 53.0439 10.371 53.0439 11.212C53.0439 12.0531 53.7329 12.7355 54.582 12.7355H91.0186C91.8686 12.7355 92.5567 12.0531 92.5567 11.212Z" fill="#323339"></path><path d="M91.0183 17.2843H59.7495C58.8996 17.2843 58.2114 17.9667 58.2114 18.8077C58.2114 19.6496 58.8996 20.332 59.7495 20.332H91.0183C91.8683 20.332 92.5572 19.6496 92.5572 18.8077C92.5572 17.9667 91.8683 17.2843 91.0183 17.2843V17.2843Z" fill="#323339"></path><path d="M91.0181 24.8809H72.7998C71.9507 24.8809 71.2617 25.5624 71.2617 26.4043C71.2617 27.2454 71.9507 27.9277 72.7998 27.9277H91.0181C91.8681 27.9277 92.557 27.2454 92.557 26.4043C92.557 25.5624 91.8681 24.8809 91.0181 24.8809Z" fill="#323339"></path><path d="M91.0181 32.4766H72.7998C71.9507 32.4766 71.2617 33.1589 71.2617 34C71.2617 34.8419 71.9507 35.5234 72.7998 35.5234H91.0181C91.8681 35.5234 92.557 34.8419 92.557 34C92.557 33.1589 91.8681 32.4766 91.0181 32.4766Z" fill="#323339"></path><path d="M52.5569 53.458C58.9977 53.458 64.2376 48.268 64.2376 41.8886C64.2376 35.5092 58.9977 30.3192 52.5569 30.3192C46.1162 30.3192 40.8755 35.5092 40.8755 41.8886C40.8755 48.268 46.1154 53.458 52.5569 53.458V53.458ZM52.5569 33.3661C57.301 33.3661 61.1614 37.189 61.1614 41.8886C61.1614 46.5875 57.301 50.4111 52.5569 50.4111C47.8121 50.4111 43.9525 46.5875 43.9525 41.8886C43.9525 37.189 47.8121 33.3661 52.5569 33.3661V33.3661Z" fill="#323339"></path><path d="M50.5209 45.9193C51.1217 46.5136 52.0959 46.5144 52.6967 45.9193L58.084 40.5833C58.6848 39.9883 58.6848 39.0234 58.084 38.4291C57.4832 37.834 56.509 37.834 55.9082 38.4291L51.6088 42.6876L49.5684 40.6667C48.9676 40.0716 47.9935 40.0716 47.3935 40.6667C46.7927 41.2617 46.7927 42.2258 47.3935 42.8209L50.5209 45.9193Z" fill="#323339"></path><path d="M4.1424 82.8395H9.71954C9.77962 82.8395 9.82849 82.8879 9.82849 82.9474V94.1771C9.82849 96.7797 13.1298 97.9524 14.7968 95.933L24.9081 83.6797C25.3487 83.1457 26.0008 82.8395 26.6977 82.8395H34.9609C35.8108 82.8395 36.499 82.1571 36.499 81.316C36.499 80.4742 35.8108 79.7918 34.9609 79.7918H26.6977C25.0739 79.7918 23.5535 80.5059 22.5265 81.7516L12.9047 93.4106V82.9474C12.9047 81.2073 11.4755 79.7918 9.71954 79.7918H4.1424C3.56482 79.7918 3.07616 79.3086 3.07616 78.7357V42.9549C3.07616 42.382 3.56482 41.898 4.1424 41.898H31.0107V43.6079C31.0107 45.0933 32.2308 46.3017 33.7304 46.3017H36.0968C36.4757 47.6918 37.0341 49.0264 37.7599 50.2769L36.0856 51.9344C35.025 52.9858 35.021 54.6893 36.0856 55.7446L38.5409 58.1765C39.0304 58.6605 39.7113 58.9652 40.4643 58.9652C41.9023 58.9652 42.4374 58.1273 44.0612 56.5182C45.3237 57.2371 46.6703 57.7893 48.0746 58.1654V60.5093C48.0746 61.9677 49.2778 63.2031 50.7943 63.2031H54.267C55.7666 63.2031 56.9867 61.9946 56.9867 60.5093V58.1654C58.3902 57.7893 59.7368 57.2371 60.9993 56.5182L61.3221 56.838V78.7357C61.3221 79.3086 60.8343 79.7918 60.2559 79.7918H42.1386C41.2894 79.7918 40.6005 80.4742 40.6005 81.316C40.6005 82.1571 41.2894 82.8395 42.1386 82.8395H60.2559C62.5406 82.8395 64.3983 80.9986 64.3983 78.7357V58.9557C64.464 58.9605 64.5297 58.9652 64.5962 58.9652C65.3227 58.9652 66.0061 58.6851 66.5196 58.1765L68.9749 55.7438C70.0379 54.6909 70.0379 52.9873 68.9749 51.9344L67.3014 50.2769C68.0272 49.0256 68.5847 47.6918 68.9645 46.3017H71.3301C72.5036 46.3017 73.5026 45.5606 73.8831 44.5283H78.3019C78.9988 44.5283 79.6509 44.8346 80.0915 45.3686L90.2028 57.6219C91.8722 59.6444 95.1711 58.4677 95.1711 55.866V44.6362C95.1711 44.5767 95.22 44.5275 95.28 44.5275H100.856C103.141 44.5275 105 42.6867 105 40.4246V25.9171C105 25.076 104.311 24.3936 103.462 24.3936C102.612 24.3936 101.923 25.076 101.923 25.9171V40.4246C101.923 40.9967 101.435 41.4807 100.856 41.4807H95.28C93.5241 41.4807 92.0949 42.8962 92.0949 44.6362V55.0995L82.4739 43.4397C81.4461 42.1948 79.9257 41.4807 78.3027 41.4807H74.0505V40.1683C74.0505 38.683 72.8305 37.4745 71.3309 37.4745H68.9645C68.5847 36.0844 68.0272 34.7506 67.3014 33.5001L68.9757 31.8418C70.0355 30.7913 70.0355 29.083 68.9757 28.0324L66.5196 25.6005C65.4485 24.5388 63.6965 24.5563 62.6431 25.6005L60.9801 27.2469C59.7224 26.5344 58.3829 25.9853 56.9867 25.6108V23.2669C56.9867 21.7816 55.7666 20.5732 54.267 20.5732H50.7638C49.2642 20.5732 48.0442 21.7816 48.0442 23.2669V25.6108C46.6471 25.9853 45.3077 26.5344 44.0508 27.2469L43.6775 26.8772V4.64378C43.6775 4.06139 44.1557 3.5869 44.7437 3.5869H100.857C101.445 3.5869 101.923 4.06139 101.923 4.64378V18.8077C101.923 19.6496 102.612 20.332 103.462 20.332C104.311 20.332 105 19.6496 105 18.8077V4.64378C105 2.38085 103.141 0.540039 100.857 0.540039H44.7437C42.459 0.540039 40.6005 2.38085 40.6005 4.64378V24.8189C39.8595 24.7824 39.1065 25.0411 38.5409 25.6005L36.0856 28.0324C35.0258 29.0822 35.0258 30.7913 36.0856 31.8418L37.7599 33.5001C37.0341 34.7514 36.4757 36.0844 36.0968 37.4745H33.7304C32.7138 37.4745 31.827 38.0307 31.3608 38.8512H4.1424C1.85851 38.8512 0 40.692 0 42.9549V78.7357C0 80.9986 1.85851 82.8395 4.1424 82.8395V82.8395ZM34.0869 40.5214H36.5142C37.687 40.5214 38.7019 39.7303 38.9815 38.5965C39.318 37.2325 39.8619 35.9313 40.5997 34.7284C41.2117 33.7302 41.0595 32.4591 40.2296 31.6371L38.5129 29.9375L40.4643 28.0047C40.5068 28.0467 40.8761 28.4426 42.1506 29.705C42.9989 30.5453 44.3111 30.6667 45.3013 30.0716C46.5157 29.3408 47.8295 28.8013 49.2065 28.4688C50.3513 28.1911 51.1508 27.1866 51.1508 26.0242V23.62H53.8793V26.0242C53.8793 27.1866 54.6787 28.1911 55.8235 28.4688C57.2006 28.8021 58.5143 29.3408 59.7288 30.0716C60.7189 30.6667 62.0311 30.5461 62.8802 29.705L64.5809 28.0197L66.5171 29.9375L64.8004 31.6371C63.9705 32.4591 63.8183 33.7302 64.4303 34.7284C65.1673 35.9305 65.7121 37.2325 66.0485 38.5965C66.3281 39.7303 67.3431 40.5222 68.5159 40.5222H70.9431V43.0049C70.9431 43.0906 70.9519 43.1739 70.9656 43.2548H68.5471C67.3735 43.2548 66.3585 44.0467 66.079 45.1806C65.7425 46.5445 65.1986 47.8458 64.4616 49.0478C63.8495 50.046 64.0009 51.3171 64.8309 52.1391L66.5476 53.8395L64.5962 55.7724C62.7288 53.9228 62.7841 53.9609 62.5494 53.7959C61.7339 53.2246 60.6412 53.1754 59.7592 53.7054C58.5448 54.4362 57.231 54.9749 55.8539 55.3082C54.71 55.5851 53.9097 56.5896 53.9097 57.752V60.1562H51.1508V57.752C51.1508 56.5896 50.3505 55.5851 49.2065 55.3082C47.8455 54.9789 46.5301 54.4449 45.3013 53.7054C44.2943 53.0992 43.011 53.25 42.1802 54.072L40.4643 55.7724L38.5129 53.8395L40.2296 52.1391C41.0595 51.3179 41.2109 50.0468 40.5997 49.0486C39.8595 47.8418 39.3132 46.5247 38.9815 45.1806C38.7019 44.0467 37.687 43.2548 36.5134 43.2548H34.0869V40.5214Z" fill="#323339"></path></g><defs><clipPath id="clip0_101_28"><rect width="105" height="104" fill="white" transform="translate(0 0.539795)"></rect></clipPath></defs></svg>