<svg xmlns="http://www.w3.org/2000/svg" width="285" height="103" viewBox="0 0 285 103" fill="none"><g clip-path="url(#clip0_60_23)"><path d="M24.05 93.4303C17.94 91.2103 16.05 88.6603 16.05 82.7803C16.05 71.7803 16.12 60.7803 16.05 49.8303C15.91 32.4003 32.47 15.4303 50.2 16.0803C65.85 16.6603 77.77 22.9003 83.74 37.7903C86.04 43.5503 86.28 49.7303 85.39 56.3203C84.6512 62.6252 82.1487 68.5938 78.17 73.5403C73.9059 79.2405 67.7642 83.2501 60.83 84.8603C56.27 85.8603 56.68 85.6203 57.17 91.4003C57.41 94.4003 60.61 92.5703 62.17 92.1103C82 86.3303 95 69.7703 93.91 48.0503C93.1301 37.8077 88.6899 28.188 81.4012 20.9498C74.1125 13.7115 64.4621 9.33829 54.2144 8.62955C43.9667 7.9208 33.8063 10.9239 25.5905 17.0898C17.3747 23.2558 11.6525 32.1726 9.47 42.2103C7.62 51.1603 8.47 60.4303 8.47 69.5603C8.54181 72.1424 8.38452 74.7259 8 77.2803C1.55728 67.8776 -1.15218 56.4123 0.399996 45.1203C1.62745 34.8491 5.97645 25.2017 12.86 17.4803C21.73 7.42027 32.81 1.58027 45.92 0.290274C62.63 -1.34973 77.33 3.87028 88.65 16.4503C98.55 27.4503 102.92 40.0103 101.47 55.5703C100.2 69.0003 95.25 79.7003 85.9 88.4903C76.8204 97.2434 64.6917 102.121 52.08 102.09C49.74 102.09 48.86 101.5 48.93 99.0903C49.09 93.4303 49.05 87.7703 48.93 82.0903C48.88 79.4703 49.66 78.2903 52.55 78.0303C68.62 76.5303 79.31 64.0303 77.92 48.7703C76.93 37.6803 71 29.9203 60.4 26.0003C50.77 22.4203 42.1 24.1503 34.23 30.5003C26.73 36.5103 24 44.6503 24 54.0003C24.08 67.1203 24.05 80.2503 24.05 93.4303Z" fill="white"></path><path d="M40 100.711C32.08 98.9106 32.08 98.9106 32.08 91.4206C32.08 77.7939 32.08 64.1606 32.08 50.5206C32.08 40.3606 38.77 33.2206 49.44 31.9506C54.0607 31.3974 58.7222 32.5795 62.5208 35.2678C66.3195 37.9561 68.9848 41.959 70 46.5006C72.79 58.6106 64.13 70.1606 52.4 70.2206C49.78 70.2206 48.6 69.5206 48.96 66.9006C49.24 64.9006 47.73 62.3406 51.84 62.0106C58.84 61.4506 62.67 56.3106 62.02 49.4806C61.54 44.3306 56.54 40.0206 51.12 40.0806C44.78 40.1506 40.06 44.8206 40.02 51.5606C39.94 67.8506 40 84.1306 40 100.711Z" fill="white"></path><path d="M126.424 28.8379H127.818C129.122 28.8379 130.097 28.5827 130.744 28.0723C131.391 27.5527 131.715 26.8008 131.715 25.8164C131.715 24.8229 131.441 24.0892 130.895 23.6152C130.357 23.1413 129.509 22.9043 128.352 22.9043H126.424V28.8379ZM135.994 25.666C135.994 27.8171 135.32 29.4622 133.971 30.6016C132.631 31.7409 130.721 32.3105 128.242 32.3105H126.424V39.4199H122.186V19.4316H128.57C130.995 19.4316 132.836 19.9557 134.094 21.0039C135.361 22.043 135.994 23.597 135.994 25.666ZM157.91 29.3984C157.91 32.707 157.09 35.25 155.449 37.0273C153.809 38.8047 151.457 39.6934 148.395 39.6934C145.332 39.6934 142.981 38.8047 141.34 37.0273C139.699 35.25 138.879 32.6979 138.879 29.3711C138.879 26.0443 139.699 23.5059 141.34 21.7559C142.99 19.9967 145.35 19.1172 148.422 19.1172C151.494 19.1172 153.841 20.0013 155.463 21.7695C157.094 23.5378 157.91 26.0807 157.91 29.3984ZM143.322 29.3984C143.322 31.6315 143.746 33.3132 144.594 34.4434C145.441 35.5736 146.708 36.1387 148.395 36.1387C151.776 36.1387 153.467 33.8919 153.467 29.3984C153.467 24.8958 151.785 22.6445 148.422 22.6445C146.736 22.6445 145.464 23.2142 144.607 24.3535C143.751 25.4837 143.322 27.1654 143.322 29.3984ZM178.322 19.4316V32.3652C178.322 33.8418 177.99 35.1361 177.324 36.248C176.668 37.36 175.716 38.2122 174.467 38.8047C173.218 39.3971 171.742 39.6934 170.037 39.6934C167.467 39.6934 165.471 39.0371 164.049 37.7246C162.627 36.403 161.916 34.5983 161.916 32.3105V19.4316H166.141V31.668C166.141 33.2083 166.451 34.3385 167.07 35.0586C167.69 35.7786 168.716 36.1387 170.147 36.1387C171.532 36.1387 172.535 35.7786 173.154 35.0586C173.783 34.3294 174.098 33.1901 174.098 31.6406V19.4316H178.322ZM183.217 39.4199V19.4316H187.455V35.9199H195.563V39.4199H183.217ZM199.049 39.4199V19.4316H203.287V39.4199H199.049ZM216.781 39.4199L211.969 23.7383H211.846C212.019 26.9284 212.106 29.0566 212.106 30.123V39.4199H208.318V19.4316H214.088L218.818 34.7168H218.9L223.918 19.4316H229.688V39.4199H225.736V29.959C225.736 29.5124 225.741 28.9974 225.75 28.4141C225.768 27.8307 225.832 26.2812 225.941 23.7656H225.818L220.664 39.4199H216.781ZM246.969 39.4199L245.52 34.6621H238.232L236.783 39.4199H232.217L239.272 19.3496H244.453L251.535 39.4199H246.969ZM244.508 31.1074C243.168 26.7962 242.412 24.3581 242.238 23.793C242.074 23.2279 241.956 22.7812 241.883 22.4531C241.582 23.6198 240.721 26.5046 239.299 31.1074H244.508Z" fill="white"></path><path d="M130.387 86.6201H128.491L127.427 82.4951C127.388 82.3483 127.32 82.0457 127.223 81.5874C127.13 81.1255 127.076 80.8158 127.062 80.6582C127.041 80.8516 126.987 81.1631 126.901 81.5928C126.815 82.0189 126.749 82.3232 126.702 82.5059L125.644 86.6201H123.753L121.75 78.7676H123.388L124.393 83.0537C124.568 83.8451 124.695 84.5308 124.774 85.1108C124.795 84.9067 124.844 84.5916 124.919 84.1655C124.998 83.7358 125.071 83.4028 125.139 83.1665L126.283 78.7676H127.857L129.001 83.1665C129.051 83.3634 129.114 83.6642 129.189 84.0688C129.264 84.4735 129.321 84.8208 129.361 85.1108C129.397 84.8315 129.454 84.4842 129.533 84.0688C129.611 83.6499 129.683 83.3115 129.748 83.0537L130.747 78.7676H132.385L130.387 86.6201ZM135.731 81.668C135.384 81.668 135.111 81.779 134.915 82.001C134.718 82.2194 134.605 82.5309 134.576 82.9355H136.875C136.868 82.5309 136.762 82.2194 136.558 82.001C136.354 81.779 136.078 81.668 135.731 81.668ZM135.962 86.7275C134.995 86.7275 134.24 86.4608 133.695 85.9272C133.151 85.3937 132.879 84.6382 132.879 83.6606C132.879 82.6545 133.13 81.8774 133.631 81.3296C134.136 80.7782 134.832 80.5024 135.72 80.5024C136.569 80.5024 137.229 80.7441 137.702 81.2275C138.175 81.7109 138.411 82.3787 138.411 83.231V84.0259H134.539C134.556 84.4914 134.694 84.8548 134.952 85.1162C135.21 85.3776 135.572 85.5083 136.037 85.5083C136.399 85.5083 136.741 85.4707 137.063 85.3955C137.385 85.3203 137.722 85.2004 138.073 85.0356V86.3032C137.786 86.4465 137.48 86.5521 137.154 86.6201C136.828 86.6917 136.431 86.7275 135.962 86.7275ZM148.144 86.6201H146.505V83.1128C146.505 82.2463 146.183 81.813 145.539 81.813C145.08 81.813 144.749 81.9688 144.545 82.2803C144.341 82.5918 144.239 83.0967 144.239 83.7949V86.6201H142.601V78.2627H144.239V79.9653C144.239 80.0978 144.226 80.4093 144.201 80.8999L144.164 81.3833H144.25C144.615 80.7961 145.195 80.5024 145.99 80.5024C146.695 80.5024 147.23 80.6922 147.596 81.0718C147.961 81.4513 148.144 81.9956 148.144 82.7046V86.6201ZM152.317 81.668C151.97 81.668 151.697 81.779 151.5 82.001C151.304 82.2194 151.191 82.5309 151.162 82.9355H153.461C153.454 82.5309 153.348 82.2194 153.144 82.001C152.94 81.779 152.664 81.668 152.317 81.668ZM152.548 86.7275C151.581 86.7275 150.826 86.4608 150.281 85.9272C149.737 85.3937 149.465 84.6382 149.465 83.6606C149.465 82.6545 149.715 81.8774 150.217 81.3296C150.722 80.7782 151.418 80.5024 152.306 80.5024C153.155 80.5024 153.815 80.7441 154.288 81.2275C154.761 81.7109 154.997 82.3787 154.997 83.231V84.0259H151.125C151.142 84.4914 151.28 84.8548 151.538 85.1162C151.796 85.3776 152.158 85.5083 152.623 85.5083C152.985 85.5083 153.327 85.4707 153.649 85.3955C153.971 85.3203 154.308 85.2004 154.659 85.0356V86.3032C154.372 86.4465 154.066 86.5521 153.74 86.6201C153.414 86.6917 153.017 86.7275 152.548 86.7275ZM157.967 86.6201H156.329V78.2627H157.967V86.6201ZM162.989 86.7275C162.284 86.7275 161.731 86.4715 161.33 85.9595H161.244C161.301 86.4608 161.33 86.7508 161.33 86.8296V89.2627H159.691V80.6152H161.023L161.254 81.394H161.33C161.713 80.7996 162.28 80.5024 163.032 80.5024C163.741 80.5024 164.296 80.7764 164.697 81.3242C165.098 81.8721 165.299 82.633 165.299 83.6069C165.299 84.2479 165.204 84.8047 165.014 85.2773C164.828 85.75 164.561 86.1099 164.214 86.3569C163.867 86.604 163.458 86.7275 162.989 86.7275ZM162.506 81.813C162.101 81.813 161.806 81.9383 161.62 82.189C161.433 82.436 161.337 82.846 161.33 83.4189V83.5962C161.33 84.2407 161.424 84.7026 161.614 84.9819C161.808 85.2612 162.112 85.4009 162.527 85.4009C163.261 85.4009 163.628 84.7957 163.628 83.5854C163.628 82.9946 163.537 82.5524 163.354 82.2588C163.175 81.9616 162.893 81.813 162.506 81.813ZM168.65 80.6152H170.444L171.578 83.9937C171.674 84.2873 171.741 84.6346 171.776 85.0356H171.809C171.848 84.6668 171.925 84.3195 172.04 83.9937L173.151 80.6152H174.908L172.367 87.3882C172.134 88.0148 171.801 88.4839 171.368 88.7954C170.938 89.1069 170.435 89.2627 169.859 89.2627C169.576 89.2627 169.299 89.2323 169.026 89.1714V87.8716C169.223 87.9181 169.438 87.9414 169.671 87.9414C169.961 87.9414 170.213 87.8519 170.428 87.6729C170.647 87.4974 170.817 87.2306 170.938 86.8726L171.035 86.5771L168.65 80.6152ZM177.078 83.6069C177.078 84.2013 177.174 84.6507 177.368 84.9551C177.565 85.2594 177.883 85.4116 178.324 85.4116C178.761 85.4116 179.074 85.2612 179.264 84.9604C179.457 84.6561 179.554 84.2049 179.554 83.6069C179.554 83.0125 179.457 82.5667 179.264 82.2695C179.07 81.9723 178.753 81.8237 178.313 81.8237C177.876 81.8237 177.561 81.9723 177.368 82.2695C177.174 82.5632 177.078 83.009 177.078 83.6069ZM181.229 83.6069C181.229 84.5845 180.972 85.349 180.456 85.9004C179.94 86.4518 179.222 86.7275 178.302 86.7275C177.726 86.7275 177.217 86.6022 176.777 86.3516C176.336 86.0973 175.998 85.7339 175.762 85.2612C175.525 84.7886 175.407 84.2371 175.407 83.6069C175.407 82.6258 175.663 81.8631 176.175 81.3188C176.687 80.7746 177.407 80.5024 178.334 80.5024C178.911 80.5024 179.419 80.6278 179.86 80.8784C180.3 81.1291 180.639 81.4889 180.875 81.958C181.111 82.4271 181.229 82.9767 181.229 83.6069ZM186.837 86.6201L186.617 85.8521H186.531C186.355 86.1313 186.106 86.348 185.784 86.502C185.462 86.6523 185.095 86.7275 184.683 86.7275C183.978 86.7275 183.446 86.5396 183.088 86.1636C182.73 85.784 182.551 85.2397 182.551 84.5308V80.6152H184.189V84.1226C184.189 84.5558 184.266 84.8817 184.42 85.1001C184.574 85.3149 184.819 85.4224 185.156 85.4224C185.614 85.4224 185.945 85.2702 186.149 84.9658C186.354 84.6579 186.456 84.1494 186.456 83.4404V80.6152H188.094V86.6201H186.837ZM194.571 86.7275C193.866 86.7275 193.311 86.4536 192.906 85.9058C192.505 85.3579 192.305 84.5988 192.305 83.6284C192.305 82.6437 192.509 81.8774 192.917 81.3296C193.329 80.7782 193.895 80.5024 194.614 80.5024C195.37 80.5024 195.946 80.7961 196.344 81.3833H196.397C196.315 80.9357 196.274 80.5365 196.274 80.1855V78.2627H197.917V86.6201H196.661L196.344 85.8413H196.274C195.902 86.4321 195.334 86.7275 194.571 86.7275ZM195.146 85.4224C195.565 85.4224 195.871 85.3006 196.064 85.0571C196.261 84.8136 196.369 84.4001 196.387 83.8164V83.6392C196.387 82.9946 196.286 82.5327 196.086 82.2534C195.889 81.9741 195.567 81.8345 195.119 81.8345C194.754 81.8345 194.469 81.9902 194.265 82.3018C194.065 82.6097 193.964 83.0591 193.964 83.6499C193.964 84.2407 194.066 84.6847 194.271 84.9819C194.475 85.2756 194.766 85.4224 195.146 85.4224ZM200.936 83.6069C200.936 84.2013 201.033 84.6507 201.226 84.9551C201.423 85.2594 201.742 85.4116 202.182 85.4116C202.619 85.4116 202.932 85.2612 203.122 84.9604C203.315 84.6561 203.412 84.2049 203.412 83.6069C203.412 83.0125 203.315 82.5667 203.122 82.2695C202.929 81.9723 202.612 81.8237 202.171 81.8237C201.735 81.8237 201.419 81.9723 201.226 82.2695C201.033 82.5632 200.936 83.009 200.936 83.6069ZM205.088 83.6069C205.088 84.5845 204.83 85.349 204.314 85.9004C203.799 86.4518 203.081 86.7275 202.161 86.7275C201.584 86.7275 201.076 86.6022 200.635 86.3516C200.195 86.0973 199.856 85.7339 199.62 85.2612C199.384 84.7886 199.266 84.2371 199.266 83.6069C199.266 82.6258 199.522 81.8631 200.034 81.3188C200.546 80.7746 201.265 80.5024 202.193 80.5024C202.769 80.5024 203.278 80.6278 203.718 80.8784C204.159 81.1291 204.497 81.4889 204.733 81.958C204.97 82.4271 205.088 82.9767 205.088 83.6069ZM214.675 86.6201H213.037V83.1128C213.037 82.6795 212.964 82.3555 212.817 82.1406C212.674 81.9222 212.446 81.813 212.135 81.813C211.716 81.813 211.411 81.967 211.222 82.2749C211.032 82.5828 210.937 83.0895 210.937 83.7949V86.6201H209.299V80.6152H210.55L210.771 81.3833H210.862C211.023 81.1076 211.256 80.8927 211.56 80.7388C211.864 80.5812 212.214 80.5024 212.607 80.5024C213.506 80.5024 214.115 80.7961 214.434 81.3833H214.579C214.74 81.104 214.976 80.8874 215.288 80.7334C215.603 80.5794 215.957 80.5024 216.351 80.5024C217.031 80.5024 217.545 80.6779 217.893 81.0288C218.243 81.3761 218.419 81.9347 218.419 82.7046V86.6201H216.775V83.1128C216.775 82.6795 216.702 82.3555 216.555 82.1406C216.412 81.9222 216.185 81.813 215.873 81.813C215.472 81.813 215.171 81.9562 214.971 82.2427C214.774 82.5291 214.675 82.9839 214.675 83.6069V86.6201ZM221.411 83.6069C221.411 84.2013 221.507 84.6507 221.701 84.9551C221.898 85.2594 222.216 85.4116 222.657 85.4116C223.094 85.4116 223.407 85.2612 223.597 84.9604C223.79 84.6561 223.887 84.2049 223.887 83.6069C223.887 83.0125 223.79 82.5667 223.597 82.2695C223.403 81.9723 223.086 81.8237 222.646 81.8237C222.209 81.8237 221.894 81.9723 221.701 82.2695C221.507 82.5632 221.411 83.009 221.411 83.6069ZM225.562 83.6069C225.562 84.5845 225.305 85.349 224.789 85.9004C224.273 86.4518 223.556 86.7275 222.635 86.7275C222.059 86.7275 221.55 86.6022 221.11 86.3516C220.669 86.0973 220.331 85.7339 220.095 85.2612C219.858 84.7886 219.74 84.2371 219.74 83.6069C219.74 82.6258 219.996 81.8631 220.508 81.3188C221.02 80.7746 221.74 80.5024 222.667 80.5024C223.244 80.5024 223.752 80.6278 224.193 80.8784C224.633 81.1291 224.972 81.4889 225.208 81.958C225.444 82.4271 225.562 82.9767 225.562 83.6069ZM230.268 80.5024C230.49 80.5024 230.674 80.5186 230.821 80.5508L230.697 82.0869C230.565 82.0511 230.404 82.0332 230.214 82.0332C229.691 82.0332 229.283 82.1675 228.989 82.436C228.699 82.7046 228.554 83.0806 228.554 83.564V86.6201H226.916V80.6152H228.157L228.398 81.625H228.479C228.665 81.2884 228.916 81.0181 229.231 80.814C229.55 80.6063 229.895 80.5024 230.268 80.5024ZM234.398 81.668C234.051 81.668 233.778 81.779 233.582 82.001C233.385 82.2194 233.272 82.5309 233.243 82.9355H235.542C235.535 82.5309 235.429 82.2194 235.225 82.001C235.021 81.779 234.745 81.668 234.398 81.668ZM234.629 86.7275C233.662 86.7275 232.907 86.4608 232.362 85.9272C231.818 85.3937 231.546 84.6382 231.546 83.6606C231.546 82.6545 231.797 81.8774 232.298 81.3296C232.803 80.7782 233.499 80.5024 234.387 80.5024C235.236 80.5024 235.896 80.7441 236.369 81.2275C236.842 81.7109 237.078 82.3787 237.078 83.231V84.0259H233.206C233.223 84.4914 233.361 84.8548 233.619 85.1162C233.877 85.3776 234.239 85.5083 234.704 85.5083C235.066 85.5083 235.408 85.4707 235.73 85.3955C236.052 85.3203 236.389 85.2004 236.74 85.0356V86.3032C236.453 86.4465 236.147 86.5521 235.821 86.6201C235.495 86.6917 235.098 86.7275 234.629 86.7275Z" fill="white"></path><path d="M122.747 62.6904V49.127H125.623V62.6904H122.747ZM146.2 62.6904H142.545L136.644 52.4297H136.561C136.678 54.2419 136.737 55.5345 136.737 56.3076V62.6904H134.167V49.127H137.795L143.686 59.2856H143.751C143.658 57.5229 143.611 56.2767 143.611 55.5469V49.127H146.2V62.6904ZM157.583 62.6904H154.753V49.127H162.528V51.4834H157.583V54.981H162.184V57.3281H157.583V62.6904ZM182.622 55.8901C182.622 58.1353 182.065 59.8608 180.952 61.0669C179.839 62.2729 178.243 62.876 176.165 62.876C174.087 62.876 172.491 62.2729 171.378 61.0669C170.264 59.8608 169.708 58.1291 169.708 55.8716C169.708 53.6141 170.264 51.8916 171.378 50.7041C172.497 49.5104 174.099 48.9136 176.183 48.9136C178.268 48.9136 179.86 49.5135 180.961 50.7134C182.068 51.9132 182.622 53.6388 182.622 55.8901ZM172.723 55.8901C172.723 57.4054 173.011 58.5465 173.586 59.3135C174.161 60.0804 175.021 60.4639 176.165 60.4639C178.459 60.4639 179.607 58.9393 179.607 55.8901C179.607 52.8348 178.466 51.3071 176.183 51.3071C175.039 51.3071 174.176 51.6937 173.595 52.4668C173.014 53.2337 172.723 54.3748 172.723 55.8901ZM195.795 62.6904H192.919V51.5205H189.236V49.127H199.478V51.5205H195.795V62.6904ZM214.507 62.6904H206.696V49.127H214.507V51.4834H209.572V54.4614H214.164V56.8179H209.572V60.3154H214.507V62.6904ZM228.237 51.3257C227.155 51.3257 226.317 51.7339 225.723 52.5503C225.13 53.3605 224.833 54.4924 224.833 55.9458C224.833 58.9702 225.968 60.4824 228.237 60.4824C229.19 60.4824 230.343 60.2443 231.698 59.7681V62.1802C230.585 62.644 229.341 62.876 227.968 62.876C225.995 62.876 224.486 62.2791 223.441 61.0854C222.396 59.8856 221.873 58.1662 221.873 55.9272C221.873 54.5171 222.13 53.2832 222.643 52.2256C223.157 51.1618 223.893 50.3485 224.851 49.7856C225.816 49.2166 226.945 48.9321 228.237 48.9321C229.555 48.9321 230.878 49.2507 232.208 49.8877L231.28 52.2256C230.773 51.9844 230.263 51.7741 229.75 51.5947C229.236 51.4154 228.732 51.3257 228.237 51.3257ZM250.837 62.6904H247.97V56.8364H242.598V62.6904H239.722V49.127H242.598V54.4429H247.97V49.127H250.837V62.6904Z" fill="white"></path><path d="M258.562 20.4199H257.732V14.0186H255.471V13.2812H260.823V14.0186H258.562V20.4199ZM265.561 20.4199L263.139 14.0918H263.1C263.145 14.5931 263.168 15.1888 263.168 15.8789V20.4199H262.402V13.2812H263.652L265.912 19.1699H265.951L268.232 13.2812H269.472V20.4199H268.642V15.8203C268.642 15.293 268.665 14.7201 268.71 14.1016H268.671L266.23 20.4199H265.561Z" fill="white"></path></g><defs><clipPath id="clip0_60_23"><rect width="284.47" height="102.09" fill="white"></rect></clipPath></defs></svg>